<?xml version="1.0" encoding="UTF-8"?>
<!DOCTYPE svg PUBLIC "-//W3C//DTD SVG 1.1//EN" "http://www.w3.org/Graphics/SVG/1.1/DTD/svg11.dtd">
<svg xmlns="http://www.w3.org/2000/svg" version="1.1" width="1339px" height="289px" style="shape-rendering:geometricPrecision; text-rendering:geometricPrecision; image-rendering:optimizeQuality; fill-rule:evenodd; clip-rule:evenodd" xmlns:xlink="http://www.w3.org/1999/xlink">
<g><path style="opacity:1" fill="#315742" d="M 55.5,6.5 C 467.858,6.0038 880.191,6.5038 1292.5,8C 1310.05,11.8849 1321.55,22.3849 1327,39.5C 1327.67,108.5 1327.67,177.5 1327,246.5C 1321.08,264.747 1308.58,275.58 1289.5,279C 876.833,279.667 464.167,279.667 51.5,279C 31.6087,275.823 18.7754,264.656 13,245.5C 12.3333,177.833 12.3333,110.167 13,42.5C 19.067,20.9327 33.2336,8.93271 55.5,6.5 Z"/></g>
<g><path style="opacity:1" fill="#dde3e0" d="M 1280.5,34.5 C 871.156,34.171 461.823,34.5044 52.5,35.5C 53.9516,34.6981 55.6183,34.1981 57.5,34C 261.333,33.8333 465.167,33.6667 669,33.5C 873,33.5 1076.83,33.8333 1280.5,34.5 Z"/></g>
<g><path style="opacity:1" fill="#fdfdfd" d="M 1280.5,34.5 C 1290.54,33.7591 1297.7,37.7591 1302,46.5C 1302.67,110.5 1302.67,174.5 1302,238.5C 1301.68,241.973 1300.18,244.806 1297.5,247C 1293.5,249.445 1289.17,251.112 1284.5,252C 874.833,252.667 465.167,252.667 55.5,252C 47.5061,251.321 41.6727,247.488 38,240.5C 37.3333,176.167 37.3333,111.833 38,47.5C 40.1011,40.3465 44.9344,36.3465 52.5,35.5C 461.823,34.5044 871.156,34.171 1280.5,34.5 Z"/></g>
<g><path style="opacity:1" fill="#355a46" d="M 687.5,44.5 C 692.179,44.3342 696.845,44.5008 701.5,45C 702,45.5 702.5,46 703,46.5C 703.667,93.5 703.667,140.5 703,187.5C 702.283,188.044 701.783,188.711 701.5,189.5C 696.405,189.779 691.405,189.445 686.5,188.5C 686.176,140.458 686.51,92.4578 687.5,44.5 Z"/></g>
<g><path style="opacity:1" fill="#385c48" d="M 199.5,44.5 C 200.552,44.3505 201.552,44.5172 202.5,45C 209.333,51.8333 216.167,58.6667 223,65.5C 223.667,95.8333 223.667,126.167 223,156.5C 222.586,156.957 222.086,157.291 221.5,157.5C 213.817,150.65 206.65,143.317 200,135.5C 199.5,105.168 199.333,74.8352 199.5,44.5 Z"/></g>
<g><path style="opacity:1" fill="#dce186" d="M 268.5,52.5 C 268.5,51.1667 267.833,50.5 266.5,50.5C 267.465,47.9152 268.799,47.4152 270.5,49C 270.192,50.4595 269.525,51.6261 268.5,52.5 Z"/></g>
<g><path style="opacity:1" fill="#c5d03b" d="M 266.5,50.5 C 267.833,50.5 268.5,51.1667 268.5,52.5C 267.89,53.391 267.557,54.391 267.5,55.5C 266.836,58.1459 266.502,60.9792 266.5,64C 266.286,68.1327 266.952,71.966 268.5,75.5C 271.952,87.6422 274.618,99.9755 276.5,112.5C 271.187,113.661 265.854,114.828 260.5,116C 257.609,117.274 254.942,118.774 252.5,120.5C 250.598,117.663 249.931,114.329 250.5,110.5C 251.806,105.384 252.473,100.051 252.5,94.5C 252.5,94.1667 252.5,93.8333 252.5,93.5C 253.687,90.0196 254.187,86.353 254,82.5C 252.477,84.5692 251.643,86.9026 251.5,89.5C 247.381,101.096 245.381,113.096 245.5,125.5C 240.792,129.207 236.792,133.54 233.5,138.5C 226.93,127.77 224.763,116.104 227,103.5C 233.86,81.1391 247.027,63.4725 266.5,50.5 Z"/></g>
<g><path style="opacity:1" fill="#335944" d="M 1040.5,62.5 C 1040.5,69.8333 1040.5,77.1667 1040.5,84.5C 1050.17,84.5 1059.83,84.5 1069.5,84.5C 1072.17,89.8333 1072.17,95.1667 1069.5,100.5C 1059.83,100.5 1050.17,100.5 1040.5,100.5C 1040.17,117.675 1040.5,134.675 1041.5,151.5C 1040.85,162.047 1045.52,168.88 1055.5,172C 1060.17,172.333 1064.83,172.667 1069.5,173C 1070,173.5 1070.5,174 1071,174.5C 1071.8,179.087 1071.63,183.587 1070.5,188C 1059.46,190.61 1048.79,189.61 1038.5,185C 1030.32,179.658 1025.65,172.158 1024.5,162.5C 1023.6,141.849 1023.27,121.183 1023.5,100.5C 1017.17,100.5 1010.83,100.5 1004.5,100.5C 1003.88,100.389 1003.38,100.056 1003,99.5C 1002.33,94.8333 1002.33,90.1667 1003,85.5C 1003.38,84.944 1003.88,84.6107 1004.5,84.5C 1010.83,84.5 1017.17,84.5 1023.5,84.5C 1023.5,77.1667 1023.5,69.8333 1023.5,62.5C 1023.61,61.8826 1023.94,61.3826 1024.5,61C 1029.5,60.3333 1034.5,60.3333 1039.5,61C 1040.06,61.3826 1040.39,61.8826 1040.5,62.5 Z"/></g>
<g><path style="opacity:1" fill="#e0e696" d="M 267.5,55.5 C 267.336,62.2022 267.669,68.8689 268.5,75.5C 266.952,71.966 266.286,68.1327 266.5,64C 266.502,60.9792 266.836,58.1459 267.5,55.5 Z"/></g>
<g><path style="opacity:1" fill="#aebdb5" d="M 517.5,84.5 C 512.438,84.2743 507.438,84.6076 502.5,85.5C 502.611,84.8826 502.944,84.3826 503.5,84C 508.352,83.1849 513.019,83.3516 517.5,84.5 Z"/></g>
<g><path style="opacity:1" fill="#b3c1ba" d="M 757.5,84.5 C 760.146,83.8356 762.979,83.5022 766,83.5C 770.133,83.2857 773.966,83.9524 777.5,85.5C 770.863,84.7243 764.196,84.391 757.5,84.5 Z"/></g>
<g><path style="opacity:1" fill="#c1ccc6" d="M 1023.5,62.5 C 1023.5,69.8333 1023.5,77.1667 1023.5,84.5C 1017.17,84.5 1010.83,84.5 1004.5,84.5C 1010.31,83.5104 1016.31,83.1771 1022.5,83.5C 1022.18,76.3134 1022.51,69.3134 1023.5,62.5 Z"/></g>
<g><path style="opacity:1" fill="#b0bfb7" d="M 1040.5,62.5 C 1041.49,69.3134 1041.82,76.3134 1041.5,83.5C 1051.01,83.1731 1060.35,83.5064 1069.5,84.5C 1059.83,84.5 1050.17,84.5 1040.5,84.5C 1040.5,77.1667 1040.5,69.8333 1040.5,62.5 Z"/></g>
<g><path style="opacity:1" fill="#688474" d="M 412.5,84.5 C 405.991,85.3288 399.324,85.9954 392.5,86.5C 393.263,85.7321 394.263,85.2321 395.5,85C 401.157,84.5006 406.824,84.3339 412.5,84.5 Z"/></g>
<g><path style="opacity:1" fill="#345944" d="M 667.5,105.5 C 667.523,107.927 668.023,110.26 669,112.5C 669.5,134.497 669.667,156.497 669.5,178.5C 668.746,181.091 667.079,182.924 664.5,184C 647.524,189.273 630.191,190.773 612.5,188.5C 610.485,187.076 608.152,186.41 605.5,186.5C 596.311,183.504 590.811,177.171 589,167.5C 588.333,161.167 588.333,154.833 589,148.5C 591.28,139.72 596.78,134.053 605.5,131.5C 608.152,131.59 610.485,130.924 612.5,129.5C 623.802,128.59 635.136,128.257 646.5,128.5C 648.607,129.468 650.941,129.802 653.5,129.5C 653.666,124.821 653.499,120.155 653,115.5C 652.434,113.277 651.6,111.277 650.5,109.5C 645.738,101.792 638.738,98.4589 629.5,99.5C 623.806,99.0906 618.473,100.257 613.5,103C 609.797,106.367 606.464,110.034 603.5,114C 589.933,113.798 587.099,108.298 595,97.5C 604.522,87.6923 616.189,83.0257 630,83.5C 642.766,82.9744 653.766,86.9744 663,95.5C 665.318,98.469 666.818,101.802 667.5,105.5 Z"/></g>
<g><path style="opacity:1" fill="#355a46" d="M 819.5,160.5 C 819.333,144.497 819.5,128.497 820,112.5C 821.43,109.647 822.263,106.647 822.5,103.5C 828.208,93.3081 836.875,87.1415 848.5,85C 857.5,84.3333 866.5,84.3333 875.5,85C 892.05,88.4775 902.217,98.3108 906,114.5C 906.667,129.167 906.667,143.833 906,158.5C 903.091,176.408 892.591,186.575 874.5,189C 859.943,192.283 846.276,190.283 833.5,183C 825.923,177.354 821.257,169.854 819.5,160.5 Z"/></g>
<g><path style="opacity:1" fill="#345a45" d="M 1000.5,147.5 C 1001.29,153.13 1001.63,158.797 1001.5,164.5C 998.907,176.759 991.573,184.425 979.5,187.5C 969.923,189.196 960.256,189.863 950.5,189.5C 935.624,187.813 925.124,180.146 919,166.5C 918.03,161.452 920.197,158.618 925.5,158C 931.891,156.369 935.724,158.869 937,165.5C 946.18,174.064 957.014,176.897 969.5,174C 972.786,172.672 976.119,171.339 979.5,170C 981.378,168.457 982.878,166.624 984,164.5C 984.667,160.5 984.667,156.5 984,152.5C 981.01,149.589 977.51,147.589 973.5,146.5C 973.047,145.542 972.381,144.708 971.5,144C 959.636,143.853 947.97,142.353 936.5,139.5C 925.032,135.109 919.365,126.609 919.5,114C 919.708,98.4553 927.374,88.7886 942.5,85C 959.198,81.1644 974.865,83.4978 989.5,92C 995.21,96.2865 998.71,101.787 1000,108.5C 996.179,110.883 992.179,112.883 988,114.5C 987.167,114.333 986.333,114.167 985.5,114C 982.442,107.942 977.775,103.609 971.5,101C 962.5,99 953.5,99 944.5,101C 936.122,106 934.288,112.833 939,121.5C 940.543,123.378 942.376,124.878 944.5,126C 956.873,127.671 969.206,129.671 981.5,132C 987.998,133.497 993.498,136.663 998,141.5C 999.122,143.407 999.955,145.407 1000.5,147.5 Z"/></g>
<g><path style="opacity:1" fill="#345944" d="M 249.5,209.5 C 249.41,212.152 250.076,214.485 251.5,216.5C 252.663,222.165 253.663,227.999 254.5,234C 254.66,236.47 253.993,238.636 252.5,240.5C 245.833,241.833 239.167,241.833 232.5,240.5C 232.137,239.817 231.804,239.15 231.5,238.5C 231.461,234.267 230.795,230.267 229.5,226.5C 227.422,212.346 221.589,200.012 212,189.5C 187.639,164.805 162.972,140.472 138,116.5C 136.547,105.937 136.047,95.2702 136.5,84.5C 137.552,84.3505 138.552,84.5172 139.5,85C 168.639,113.138 197.472,141.638 226,170.5C 236.906,181.644 244.739,194.644 249.5,209.5 Z"/></g>
<g><path style="opacity:1" fill="#345944" d="M 412.5,84.5 C 424.017,82.5305 427.851,87.1971 424,98.5C 423.5,99 423,99.5 422.5,100C 415.5,100.333 408.5,100.667 401.5,101C 398.203,101.204 395.203,102.037 392.5,103.5C 390.278,103.178 388.444,103.845 387,105.5C 386.5,133.165 386.333,160.831 386.5,188.5C 385.833,188.5 385.5,188.833 385.5,189.5C 380.405,189.779 375.405,189.445 370.5,188.5C 369.336,157.669 369.169,126.669 370,95.5C 376.191,89.6042 383.691,86.6042 392.5,86.5C 399.324,85.9954 405.991,85.3288 412.5,84.5 Z"/></g>
<g><path style="opacity:1" fill="#365b46" d="M 502.5,85.5 C 507.438,84.6076 512.438,84.2743 517.5,84.5C 518.117,84.6107 518.617,84.944 519,85.5C 519.167,100.833 519.333,116.167 519.5,131.5C 519.653,147.589 519.153,163.589 518,179.5C 498.554,189.21 478.054,192.044 456.5,188C 449.791,185.399 444.291,181.232 440,175.5C 438.576,172.352 437.076,169.352 435.5,166.5C 435.048,162.837 434.548,159.17 434,155.5C 433.5,132.502 433.333,109.502 433.5,86.5C 433.611,85.8826 433.944,85.3826 434.5,85C 439.5,84.3333 444.5,84.3333 449.5,85C 450,85.5 450.5,86 451,86.5C 451.333,109.167 451.667,131.833 452,154.5C 454.555,168.531 463.055,174.865 477.5,173.5C 480.833,173.333 484.167,173.167 487.5,173C 492.203,172.079 496.703,170.579 501,168.5C 501.168,140.664 501.668,112.997 502.5,85.5 Z"/></g>
<g><path style="opacity:1" fill="#5b7968" d="M 584.5,85.5 C 574.148,85.3994 563.815,85.7327 553.5,86.5C 559.427,84.9929 565.594,84.3262 572,84.5C 576.347,84.501 580.514,84.8343 584.5,85.5 Z"/></g>
<g><path style="opacity:1" fill="#365b47" d="M 584.5,85.5 C 585.647,89.6463 585.814,93.9796 585,98.5C 584.5,99 584,99.5 583.5,100C 576.654,100.172 569.987,100.672 563.5,101.5C 558.688,100.965 554.355,101.965 550.5,104.5C 549.883,104.611 549.383,104.944 549,105.5C 548.667,133.167 548.333,160.833 548,188.5C 542.918,189.637 537.751,189.804 532.5,189C 532,188.5 531.5,188 531,187.5C 530.333,156.833 530.333,126.167 531,95.5C 532.938,92.8941 535.438,91.0608 538.5,90C 543.402,88.3575 548.402,87.1909 553.5,86.5C 563.815,85.7327 574.148,85.3994 584.5,85.5 Z"/></g>
<g><path style="opacity:1" fill="#648070" d="M 756.5,84.5 C 752.433,86.0538 748.1,86.7204 743.5,86.5C 747.567,84.9462 751.9,84.2796 756.5,84.5 Z"/></g>
<g><path style="opacity:1" fill="#335843" d="M 756.5,84.5 C 756.833,84.5 757.167,84.5 757.5,84.5C 764.196,84.391 770.863,84.7243 777.5,85.5C 791.96,87.9604 800.96,96.2937 804.5,110.5C 805.463,136.141 805.796,161.808 805.5,187.5C 805.389,188.117 805.056,188.617 804.5,189C 799.249,189.804 794.082,189.637 789,188.5C 788.667,165.5 788.333,142.5 788,119.5C 786.537,108.704 780.37,102.537 769.5,101C 761.785,100.238 754.119,100.571 746.5,102C 743.391,102.644 740.557,103.811 738,105.5C 737.667,133.167 737.333,160.833 737,188.5C 732.252,189.635 727.419,189.802 722.5,189C 722,188.5 721.5,188 721,187.5C 720.333,156.833 720.333,126.167 721,95.5C 722.451,93.5359 724.284,92.2026 726.5,91.5C 730.767,90.7444 734.767,89.411 738.5,87.5C 740.042,86.6993 741.708,86.366 743.5,86.5C 748.1,86.7204 752.433,86.0538 756.5,84.5 Z"/></g>
<g><path style="opacity:1" fill="#335944" d="M 1109.5,101.5 C 1107.1,101.259 1105.1,101.926 1103.5,103.5C 1101.61,103.297 1100.11,103.963 1099,105.5C 1098.83,133.405 1098.33,161.239 1097.5,189C 1092.25,189.804 1087.08,189.637 1082,188.5C 1081.33,157.167 1081.33,125.833 1082,94.5C 1083.73,92.3834 1085.9,90.8834 1088.5,90C 1103.41,84.7745 1118.75,83.1079 1134.5,85C 1135.8,89.7817 1135.8,94.615 1134.5,99.5C 1126.14,100.167 1117.8,100.834 1109.5,101.5 Z"/></g>
<g><path style="opacity:1" fill="#7a9285" d="M 1184.5,84.5 C 1176.76,84.4502 1169.1,85.1169 1161.5,86.5C 1164.2,85.037 1167.2,84.2037 1170.5,84C 1175.35,83.1849 1180.02,83.3516 1184.5,84.5 Z"/></g>
<g><path style="opacity:1" fill="#355a46" d="M 1184.5,84.5 C 1201.27,85.1997 1211.94,93.5331 1216.5,109.5C 1216.08,111.781 1216.74,113.448 1218.5,114.5C 1218.83,136.51 1218.5,158.51 1217.5,180.5C 1214.11,183.695 1210.11,185.861 1205.5,187C 1187.45,191.484 1169.45,191.484 1151.5,187C 1141.6,182.38 1136.26,174.547 1135.5,163.5C 1135.39,158.13 1135.73,152.797 1136.5,147.5C 1139.17,140.167 1144.17,135.167 1151.5,132.5C 1155.16,132.277 1158.5,131.277 1161.5,129.5C 1174.44,128.409 1187.44,128.409 1200.5,129.5C 1200.67,123.824 1200.5,118.157 1200,112.5C 1196.85,105.175 1191.35,101.175 1183.5,100.5C 1179.02,99.3516 1174.35,99.1849 1169.5,100C 1167.28,100.566 1165.28,101.4 1163.5,102.5C 1158.24,104.592 1154.41,108.259 1152,113.5C 1147.57,114.594 1143.4,113.76 1139.5,111C 1138.11,110.044 1137.44,108.711 1137.5,107C 1141.98,96.0207 1149.98,89.1874 1161.5,86.5C 1169.1,85.1169 1176.76,84.4502 1184.5,84.5 Z"/></g>
<g><path style="opacity:1" fill="#eaedb6" d="M 252.5,93.5 C 252.768,91.901 252.434,90.5676 251.5,89.5C 251.643,86.9026 252.477,84.5692 254,82.5C 254.187,86.353 253.687,90.0196 252.5,93.5 Z"/></g>
<g><path style="opacity:1" fill="#728c7d" d="M 738.5,87.5 C 734.767,89.411 730.767,90.7444 726.5,91.5C 730.085,89.1939 734.085,87.8606 738.5,87.5 Z"/></g>
<g><path style="opacity:1" fill="#b1bfb8" d="M 869.5,100.5 C 863.464,100.36 857.464,100.693 851.5,101.5C 854.695,99.9704 858.195,99.3037 862,99.5C 864.69,99.5029 867.19,99.8362 869.5,100.5 Z"/></g>
<g><path style="opacity:1" fill="#fdfdfd" d="M 869.5,100.5 C 878.044,101.517 884.211,105.85 888,113.5C 888.667,128.833 888.667,144.167 888,159.5C 886.283,164.549 883.116,168.382 878.5,171C 868.282,175.148 857.949,175.481 847.5,172C 842.555,169.054 839.055,164.888 837,159.5C 836.333,143.833 836.333,128.167 837,112.5C 840.328,106.651 845.161,102.984 851.5,101.5C 857.464,100.693 863.464,100.36 869.5,100.5 Z"/></g>
<g><path style="opacity:1" fill="#d8df7b" d="M 252.5,94.5 C 252.473,100.051 251.806,105.384 250.5,110.5C 250.5,108.833 250.5,107.167 250.5,105.5C 250.808,101.64 251.475,97.9736 252.5,94.5 Z"/></g>
<g><path style="opacity:1" fill="#c5d0ca" d="M 1183.5,100.5 C 1176.71,100.201 1170.04,100.868 1163.5,102.5C 1165.28,101.4 1167.28,100.566 1169.5,100C 1174.35,99.1849 1179.02,99.3516 1183.5,100.5 Z"/></g>
<g><path style="opacity:1" fill="#b8c5be" d="M 563.5,101.5 C 559.319,102.66 554.985,103.66 550.5,104.5C 554.355,101.965 558.688,100.965 563.5,101.5 Z"/></g>
<g><path style="opacity:1" fill="#aab9b1" d="M 1109.5,101.5 C 1107.9,103.074 1105.9,103.741 1103.5,103.5C 1105.1,101.926 1107.1,101.259 1109.5,101.5 Z"/></g>
<g><path style="opacity:1" fill="#335944" d="M 222.5,222.5 C 222.41,225.152 223.076,227.485 224.5,229.5C 224.759,233.24 224.426,236.906 223.5,240.5C 216.833,241.833 210.167,241.833 203.5,240.5C 202.138,230.398 198.638,221.064 193,212.5C 168,187.5 143,162.5 118,137.5C 117.5,127.172 117.334,116.839 117.5,106.5C 118.552,106.351 119.552,106.517 120.5,107C 148.028,134.862 175.861,162.362 204,189.5C 213.283,198.732 219.45,209.732 222.5,222.5 Z"/></g>
<g><path style="opacity:1" fill="#eaeeb7" d="M 288.5,113.5 C 292.988,112.834 297.654,112.501 302.5,112.5C 309.73,112.333 316.73,112.999 323.5,114.5C 311.852,113.698 300.185,113.365 288.5,113.5 Z"/></g>
<g><path style="opacity:1" fill="#c5cf39" d="M 288.5,113.5 C 300.185,113.365 311.852,113.698 323.5,114.5C 328.953,116.278 334.619,117.612 340.5,118.5C 341.263,119.268 342.263,119.768 343.5,120C 342.263,120.232 341.263,120.732 340.5,121.5C 332.789,123.522 326.123,127.355 320.5,133C 308.235,147.262 296.735,162.095 286,177.5C 274.684,188.507 261.184,192.34 245.5,189C 242.328,184.827 240.161,180.327 239,175.5C 253.676,159.968 270.176,146.968 288.5,136.5C 293.296,134.602 297.962,132.435 302.5,130C 296.716,130.539 291.382,132.372 286.5,135.5C 267.315,143.267 250.648,154.767 236.5,170C 235.365,170.749 234.365,170.583 233.5,169.5C 231.328,166.828 228.994,164.328 226.5,162C 236.056,131.713 256.723,115.546 288.5,113.5 Z"/></g>
<g><path style="opacity:1" fill="#81988c" d="M 1216.5,109.5 C 1218.21,110.635 1218.88,112.302 1218.5,114.5C 1216.74,113.448 1216.08,111.781 1216.5,109.5 Z"/></g>
<g><path style="opacity:1" fill="#e9edb5" d="M 250.5,105.5 C 250.5,107.167 250.5,108.833 250.5,110.5C 249.931,114.329 250.598,117.663 252.5,120.5C 251.791,121.404 250.791,121.737 249.5,121.5C 249.179,115.974 249.512,110.64 250.5,105.5 Z"/></g>
<g><path style="opacity:1" fill="#edf0c0" d="M 340.5,118.5 C 341.833,118.5 343.167,118.5 344.5,118.5C 344.5,119.5 344.5,120.5 344.5,121.5C 343.167,121.5 341.833,121.5 340.5,121.5C 341.263,120.732 342.263,120.232 343.5,120C 342.263,119.768 341.263,119.268 340.5,118.5 Z"/></g>
<g><path style="opacity:1" fill="#a4b5ab" d="M 650.5,109.5 C 651.6,111.277 652.434,113.277 653,115.5C 653.499,120.155 653.666,124.821 653.5,129.5C 650.941,129.802 648.607,129.468 646.5,128.5C 648.5,128.5 650.5,128.5 652.5,128.5C 652.768,122.044 652.101,115.711 650.5,109.5 Z"/></g>
<g><path style="opacity:1" fill="#e3e8e5" d="M 433.5,86.5 C 433.333,109.502 433.5,132.502 434,155.5C 434.548,159.17 435.048,162.837 435.5,166.5C 433.982,163.466 433.149,160.133 433,156.5C 432.17,132.996 432.337,109.663 433.5,86.5 Z"/></g>
<g><path style="opacity:1" fill="#7d9688" d="M 822.5,103.5 C 822.263,106.647 821.43,109.647 820,112.5C 819.5,128.497 819.333,144.497 819.5,160.5C 818.338,144.339 818.172,128.005 819,111.5C 819.705,108.524 820.871,105.858 822.5,103.5 Z"/></g>
<g><path style="opacity:1" fill="#81988b" d="M 612.5,129.5 C 610.485,130.924 608.152,131.59 605.5,131.5C 607.515,130.076 609.848,129.41 612.5,129.5 Z"/></g>
<g><path style="opacity:1" fill="#799284" d="M 1161.5,129.5 C 1158.5,131.277 1155.16,132.277 1151.5,132.5C 1154.5,130.723 1157.84,129.723 1161.5,129.5 Z"/></g>
<g><path style="opacity:1" fill="#607d6c" d="M 667.5,105.5 C 668.6,107.277 669.434,109.277 670,111.5C 670.83,134.004 670.663,156.337 669.5,178.5C 669.667,156.497 669.5,134.497 669,112.5C 668.023,110.26 667.523,107.927 667.5,105.5 Z"/></g>
<g><path style="opacity:1" fill="#627f6f" d="M 687.5,44.5 C 686.51,92.4578 686.176,140.458 686.5,188.5C 685.335,141.002 685.168,93.3351 686,45.5C 686.383,44.944 686.883,44.6107 687.5,44.5 Z"/></g>
<g><path style="opacity:1" fill="#cfd8d3" d="M 1004.5,100.5 C 1010.83,100.5 1017.17,100.5 1023.5,100.5C 1023.27,121.183 1023.6,141.849 1024.5,162.5C 1023.71,161.391 1023.21,160.058 1023,158.5C 1022.5,139.503 1022.33,120.503 1022.5,101.5C 1016.31,101.823 1010.31,101.49 1004.5,100.5 Z"/></g>
<g><path style="opacity:1" fill="#f0f2cb" d="M 288.5,136.5 C 288.158,135.662 287.492,135.328 286.5,135.5C 291.382,132.372 296.716,130.539 302.5,130C 297.962,132.435 293.296,134.602 288.5,136.5 Z"/></g>
<g><path style="opacity:1" fill="#94a79d" d="M 1069.5,100.5 C 1060.35,101.494 1051.01,101.827 1041.5,101.5C 1041.5,118.167 1041.5,134.833 1041.5,151.5C 1040.5,134.675 1040.17,117.675 1040.5,100.5C 1050.17,100.5 1059.83,100.5 1069.5,100.5 Z"/></g>
<g><path style="opacity:1" fill="#5e7c6b" d="M 936.5,139.5 C 947.97,142.353 959.636,143.853 971.5,144C 972.381,144.708 973.047,145.542 973.5,146.5C 964.898,145.055 956.232,143.888 947.5,143C 943.616,142.136 939.949,140.97 936.5,139.5 Z"/></g>
<g><path style="opacity:1" fill="#fafbfb" d="M 646.5,173.5 C 636.159,174.771 625.826,174.771 615.5,173.5C 605.868,169.264 602.702,161.931 606,151.5C 607.5,148.667 609.667,146.5 612.5,145C 617.659,143.101 622.992,142.268 628.5,142.5C 636.753,142.794 644.919,143.46 653,144.5C 653.667,153.167 653.667,161.833 653,170.5C 651.266,172.451 649.099,173.451 646.5,173.5 Z"/></g>
<g><path style="opacity:1" fill="#fbfcfc" d="M 1164.5,143.5 C 1176.51,143.424 1188.51,143.757 1200.5,144.5C 1200.67,153.506 1200.5,162.506 1200,171.5C 1192.19,174.694 1184.02,176.027 1175.5,175.5C 1157.85,176.692 1150.69,168.692 1154,151.5C 1156.27,147.044 1159.77,144.378 1164.5,143.5 Z"/></g>
<g><path style="opacity:1" fill="#c4cfc9" d="M 1136.5,147.5 C 1135.73,152.797 1135.39,158.13 1135.5,163.5C 1134.84,161.527 1134.5,159.361 1134.5,157C 1134.33,153.523 1134.99,150.356 1136.5,147.5 Z"/></g>
<g><path style="opacity:1" fill="#7f9789" d="M 392.5,103.5 C 390.909,104.219 389.409,105.219 388,106.5C 387.832,134.003 387.332,161.336 386.5,188.5C 386.333,160.831 386.5,133.165 387,105.5C 388.444,103.845 390.278,103.178 392.5,103.5 Z"/></g>
<g><path style="opacity:1" fill="#abbbb2" d="M 1000.5,147.5 C 1002.02,150.526 1002.69,153.859 1002.5,157.5C 1002.5,160.025 1002.16,162.359 1001.5,164.5C 1001.63,158.797 1001.29,153.13 1000.5,147.5 Z"/></g>
<g><path style="opacity:1" fill="#9caea3" d="M 804.5,110.5 C 805.268,111.263 805.768,112.263 806,113.5C 806.83,138.337 806.663,163.003 805.5,187.5C 805.796,161.808 805.463,136.141 804.5,110.5 Z"/></g>
<g><path style="opacity:1" fill="#80978a" d="M 615.5,173.5 C 625.826,174.771 636.159,174.771 646.5,173.5C 641.431,175.057 636.098,175.724 630.5,175.5C 626.5,175.333 622.5,175.167 618.5,175C 617.263,174.768 616.263,174.268 615.5,173.5 Z"/></g>
<g><path style="opacity:1" fill="#90a499" d="M 605.5,186.5 C 608.152,186.41 610.485,187.076 612.5,188.5C 609.848,188.59 607.515,187.924 605.5,186.5 Z"/></g>
<g><path style="opacity:1" fill="#c3cec8" d="M 370.5,188.5 C 375.405,189.445 380.405,189.779 385.5,189.5C 383.19,190.164 380.69,190.497 378,190.5C 375.071,190.475 372.571,189.809 370.5,188.5 Z"/></g>
<g><path style="opacity:1" fill="#c2cdc7" d="M 686.5,188.5 C 691.405,189.445 696.405,189.779 701.5,189.5C 699.19,190.164 696.69,190.497 694,190.5C 691.071,190.475 688.571,189.809 686.5,188.5 Z"/></g>
<g><path style="opacity:1" fill="#becac3" d="M 979.5,187.5 C 979.389,188.117 979.056,188.617 978.5,189C 969.033,190.622 959.7,190.789 950.5,189.5C 960.256,189.863 969.923,189.196 979.5,187.5 Z"/></g>
<g><path style="opacity:1" fill="#4e6e5c" d="M 1095.5,196.5 C 1097.46,196.948 1097.8,197.948 1096.5,199.5C 1094.59,201.156 1092.59,201.489 1090.5,200.5C 1092.01,198.918 1093.68,197.584 1095.5,196.5 Z"/></g>
<g><path style="opacity:1" fill="#466854" d="M 484.5,222.5 C 486.61,218.498 487.943,214.165 488.5,209.5C 489.609,205.971 491.442,205.638 494,208.5C 496.732,218.196 499.565,227.863 502.5,237.5C 502.363,239.107 501.696,240.441 500.5,241.5C 498.899,238.696 497.899,235.696 497.5,232.5C 493.167,232.5 488.833,232.5 484.5,232.5C 484.037,235.482 483.704,238.482 483.5,241.5C 480.879,241.523 479.545,240.189 479.5,237.5C 480.578,232.267 482.244,227.267 484.5,222.5 Z"/></g>
<g><path style="opacity:1" fill="#426451" d="M 581.5,232.5 C 576.579,232.138 571.913,231.138 567.5,229.5C 567.5,228.167 567.5,226.833 567.5,225.5C 568.766,219.342 570.6,213.342 573,207.5C 574.356,206.62 575.856,206.286 577.5,206.5C 580.491,216.477 583.491,226.477 586.5,236.5C 586.563,238.481 585.896,240.148 584.5,241.5C 583.296,238.556 582.296,235.556 581.5,232.5 Z"/></g>
<g><path style="opacity:1" fill="#4a6b58" d="M 370.5,207.5 C 372.157,216.957 373.157,226.624 373.5,236.5C 377.833,236.5 382.167,236.5 386.5,236.5C 387.705,237.672 387.705,239.005 386.5,240.5C 381.167,241.833 375.833,241.833 370.5,240.5C 369.179,229.372 369.179,218.372 370.5,207.5 Z"/></g>
<g><path style="opacity:1" fill="#456754" d="M 532.5,206.5 C 533.822,206.33 534.989,206.663 536,207.5C 538.425,211.349 540.592,215.349 542.5,219.5C 544.833,215.5 547.167,211.5 549.5,207.5C 550.651,206.269 551.817,206.269 553,207.5C 550.456,212.625 547.956,217.959 545.5,223.5C 548.284,228.232 550.951,233.065 553.5,238C 552.991,239.169 552.158,240.002 551,240.5C 548.153,236.13 545.32,231.797 542.5,227.5C 539.324,231.85 536.657,236.517 534.5,241.5C 532.744,239.809 532.244,237.809 533,235.5C 535.25,231.332 537.75,227.332 540.5,223.5C 536.988,218.147 534.321,212.48 532.5,206.5 Z"/></g>
<g><path style="opacity:1" fill="#4a6b58" d="M 616.5,206.5 C 620.514,206.334 624.514,206.501 628.5,207C 635.11,209.208 637.276,213.708 635,220.5C 633.145,222.355 631.312,224.188 629.5,226C 631.756,229.845 633.756,233.845 635.5,238C 635.22,239.395 634.553,240.562 633.5,241.5C 630.583,236.668 627.916,231.668 625.5,226.5C 623.604,225.534 621.604,225.201 619.5,225.5C 619.666,230.179 619.499,234.845 619,239.5C 618,242.167 617,242.167 616,239.5C 615.191,228.424 615.358,217.424 616.5,206.5 Z"/></g>
<g><path style="opacity:1" fill="#4a6c59" d="M 649.5,206.5 C 650.5,206.5 651.5,206.5 652.5,206.5C 652.334,215.506 652.5,224.506 653,233.5C 656.667,237.5 660.333,237.5 664,233.5C 664.333,224.833 664.667,216.167 665,207.5C 666.011,206.663 667.178,206.33 668.5,206.5C 668.666,216.172 668.5,225.839 668,235.5C 660.776,243.949 654.443,243.282 649,233.5C 648.196,224.422 648.363,215.422 649.5,206.5 Z"/></g>
<g><path style="opacity:1" fill="#426451" d="M 696.5,207.5 C 703.051,208.941 705.217,212.941 703,219.5C 701.471,222.266 699.304,224.266 696.5,225.5C 700.302,229.73 702.302,234.397 702.5,239.5C 701.883,239.611 701.383,239.944 701,240.5C 700.623,239.058 699.79,238.058 698.5,237.5C 697.119,233.736 695.453,230.069 693.5,226.5C 691.604,225.534 689.604,225.201 687.5,225.5C 687.666,230.179 687.499,234.845 687,239.5C 685.929,242.113 685.095,242.113 684.5,239.5C 684.5,228.833 684.5,218.167 684.5,207.5C 688.5,207.5 692.5,207.5 696.5,207.5 Z"/></g>
<g><path style="opacity:1" fill="#466855" d="M 767.5,239.5 C 761.833,239.5 756.167,239.5 750.5,239.5C 750.5,228.5 750.5,217.5 750.5,206.5C 751.822,206.33 752.989,206.663 754,207.5C 754.5,217.161 754.666,226.828 754.5,236.5C 758.833,236.5 763.167,236.5 767.5,236.5C 767.5,237.5 767.5,238.5 767.5,239.5 Z"/></g>
<g><path style="opacity:1" fill="#476956" d="M 809.5,207.5 C 811.735,208.228 813.568,209.561 815,211.5C 815.667,219.167 815.667,226.833 815,234.5C 813.975,236.687 812.475,238.354 810.5,239.5C 806.035,240.736 801.701,240.736 797.5,239.5C 797.5,228.833 797.5,218.167 797.5,207.5C 801.5,207.5 805.5,207.5 809.5,207.5 Z"/></g>
<g><path style="opacity:1" fill="#4a6b59" d="M 842.5,224.5 C 839.833,224.5 837.167,224.5 834.5,224.5C 834.5,228.5 834.5,232.5 834.5,236.5C 839.5,236.5 844.5,236.5 849.5,236.5C 849.5,237.5 849.5,238.5 849.5,239.5C 843.5,239.5 837.5,239.5 831.5,239.5C 830.341,229.008 830.175,218.341 831,207.5C 837.076,206.524 843.242,206.19 849.5,206.5C 849.5,207.833 849.5,209.167 849.5,210.5C 844.5,210.5 839.5,210.5 834.5,210.5C 834.5,214.167 834.5,217.833 834.5,221.5C 837.167,221.5 839.833,221.5 842.5,221.5C 842.5,222.5 842.5,223.5 842.5,224.5 Z"/></g>
<g><path style="opacity:1" fill="#406350" d="M 970.5,226.5 C 967.5,226.5 964.5,226.5 961.5,226.5C 961.5,230.833 961.5,235.167 961.5,239.5C 960.603,240.598 959.77,240.598 959,239.5C 958.5,228.505 958.333,217.505 958.5,206.5C 962.846,206.334 967.179,206.501 971.5,207C 977.234,210.18 979.067,215.013 977,221.5C 975.841,224.493 973.675,226.16 970.5,226.5 Z"/></g>
<g><path style="opacity:1" fill="#426451" d="M 991.5,206.5 C 995.846,206.334 1000.18,206.501 1004.5,207C 1010.17,209.815 1012,214.315 1010,220.5C 1008.32,222.351 1006.48,224.018 1004.5,225.5C 1006.59,228.673 1008.42,232.006 1010,235.5C 1010.77,237.403 1010.44,239.07 1009,240.5C 1005.83,236.159 1003.16,231.492 1001,226.5C 998.959,225.577 996.792,225.244 994.5,225.5C 994.666,230.179 994.499,234.845 994,239.5C 993.333,240.833 992.667,240.833 992,239.5C 991.5,228.505 991.333,217.505 991.5,206.5 Z"/></g>
<g><path style="opacity:1" fill="#446653" d="M 1029.5,206.5 C 1035.59,205.137 1040.09,207.137 1043,212.5C 1043.67,219.5 1043.67,226.5 1043,233.5C 1040.87,240.45 1036.37,242.783 1029.5,240.5C 1027.76,238.679 1026.26,236.679 1025,234.5C 1024.33,226.833 1024.33,219.167 1025,211.5C 1026.06,209.341 1027.56,207.674 1029.5,206.5 Z"/></g>
<g><path style="opacity:1" fill="#496a57" d="M 1092.5,206.5 C 1093.5,206.5 1094.5,206.5 1095.5,206.5C 1095.67,217.505 1095.5,228.505 1095,239.5C 1094,242.167 1093,242.167 1092,239.5C 1091.19,228.424 1091.36,217.424 1092.5,206.5 Z"/></g>
<g><path style="opacity:1" fill="#406350" d="M 1125.5,228.5 C 1125.37,229.376 1125.7,230.043 1126.5,230.5C 1127.5,222.862 1127.83,215.196 1127.5,207.5C 1128.83,212.456 1129.49,217.789 1129.5,223.5C 1129.49,229.211 1128.83,234.544 1127.5,239.5C 1123.82,232.798 1120.15,226.132 1116.5,219.5C 1116.5,219.167 1116.5,218.833 1116.5,218.5C 1116.18,216.952 1115.18,216.285 1113.5,216.5C 1114.13,224.573 1113.47,232.24 1111.5,239.5C 1110.51,229.013 1110.17,218.346 1110.5,207.5C 1112.72,207.178 1114.56,207.845 1116,209.5C 1119.18,215.86 1122.35,222.193 1125.5,228.5 Z"/></g>
<g><path style="opacity:1" fill="#375c48" d="M 1181.5,239.5 C 1180.83,242.167 1180.17,242.167 1179.5,239.5C 1180.17,196.833 1180.83,196.833 1181.5,239.5 Z"/></g>
<g><path style="opacity:1" fill="#587665" d="M 370.5,207.5 C 371.5,206.167 372.5,206.167 373.5,207.5C 373.5,217.167 373.5,226.833 373.5,236.5C 373.157,226.624 372.157,216.957 370.5,207.5 Z"/></g>
<g><path style="opacity:1" fill="#cdd5d1" d="M 373.5,207.5 C 374.494,216.652 374.827,225.985 374.5,235.5C 378.702,235.183 382.702,235.517 386.5,236.5C 382.167,236.5 377.833,236.5 373.5,236.5C 373.5,226.833 373.5,217.167 373.5,207.5 Z"/></g>
<g><path style="opacity:1" fill="#375b47" d="M 518.5,239.5 C 517.833,242.167 517.167,242.167 516.5,239.5C 517.167,198.167 517.833,198.167 518.5,239.5 Z"/></g>
<g><path style="opacity:1" fill="#648171" d="M 518.5,239.5 C 517.833,198.167 517.167,198.167 516.5,239.5C 515.341,229.008 515.175,218.341 516,207.5C 517,206.167 518,206.167 519,207.5C 519.825,218.341 519.659,229.008 518.5,239.5 Z"/></g>
<g><path style="opacity:1" fill="#6c8778" d="M 696.5,207.5 C 692.5,207.5 688.5,207.5 684.5,207.5C 684.5,218.167 684.5,228.833 684.5,239.5C 683.505,228.679 683.172,217.679 683.5,206.5C 688.032,206.182 692.366,206.515 696.5,207.5 Z"/></g>
<g><path style="opacity:1" fill="#d4dbd7" d="M 882.5,207.5 C 883.494,216.652 883.827,225.985 883.5,235.5C 887.702,235.183 891.702,235.517 895.5,236.5C 891.167,236.5 886.833,236.5 882.5,236.5C 882.5,226.833 882.5,217.167 882.5,207.5 Z"/></g>
<g><path style="opacity:1" fill="#5d7b6a" d="M 809.5,207.5 C 805.5,207.5 801.5,207.5 797.5,207.5C 797.5,218.167 797.5,228.833 797.5,239.5C 797.167,239.5 796.833,239.5 796.5,239.5C 796.5,228.5 796.5,217.5 796.5,206.5C 801.032,206.182 805.366,206.515 809.5,207.5 Z"/></g>
<g><path style="opacity:1" fill="#879d91" d="M 1127.5,207.5 C 1127.83,215.196 1127.5,222.862 1126.5,230.5C 1125.7,230.043 1125.37,229.376 1125.5,228.5C 1126.17,221.5 1126.83,214.5 1127.5,207.5 Z"/></g>
<g><path style="opacity:1" fill="#577564" d="M 1127.5,207.5 C 1128.21,206.596 1129.21,206.263 1130.5,206.5C 1130.5,218.167 1130.5,229.833 1130.5,241.5C 1128.82,241.715 1127.82,241.048 1127.5,239.5C 1128.83,234.544 1129.49,229.211 1129.5,223.5C 1129.49,217.789 1128.83,212.456 1127.5,207.5 Z"/></g>
<g><path style="opacity:1" fill="#658171" d="M 1181.5,239.5 C 1180.83,196.833 1180.17,196.833 1179.5,239.5C 1178.51,228.679 1178.17,217.679 1178.5,206.5C 1179.83,206.5 1181.17,206.5 1182.5,206.5C 1182.83,217.679 1182.49,228.679 1181.5,239.5 Z"/></g>
<g><path style="opacity:1" fill="#f0f3f1" d="M 619.5,210.5 C 622.518,210.335 625.518,210.502 628.5,211C 632.415,214.622 632.415,218.288 628.5,222C 625.518,222.498 622.518,222.665 619.5,222.5C 619.5,218.5 619.5,214.5 619.5,210.5 Z"/></g>
<g><path style="opacity:1" fill="#f4f6f5" d="M 687.5,210.5 C 691.457,210.008 695.123,210.675 698.5,212.5C 700.221,216.184 699.555,219.184 696.5,221.5C 693.5,221.5 690.5,221.5 687.5,221.5C 687.5,217.833 687.5,214.167 687.5,210.5 Z"/></g>
<g><path style="opacity:1" fill="#7e9588" d="M 728.5,208.5 C 730.61,212.502 731.943,216.835 732.5,221.5C 730.39,217.498 729.057,213.165 728.5,208.5 Z"/></g>
<g><path style="opacity:1" fill="#f9faf9" d="M 800.5,210.5 C 810.589,208.763 814.256,212.93 811.5,223C 811.601,227.281 811.101,231.448 810,235.5C 806.943,236.451 803.777,236.784 800.5,236.5C 800.5,227.833 800.5,219.167 800.5,210.5 Z"/></g>
<g><path style="opacity:1" fill="#f4f6f5" d="M 962.5,210.5 C 971.316,208.494 975.15,211.827 974,220.5C 973.292,221.381 972.458,222.047 971.5,222.5C 968.5,222.5 965.5,222.5 962.5,222.5C 962.5,218.5 962.5,214.5 962.5,210.5 Z"/></g>
<g><path style="opacity:1" fill="#f8f9f9" d="M 995.5,210.5 C 1003.98,208.156 1007.48,211.156 1006,219.5C 1005.29,220.381 1004.46,221.047 1003.5,221.5C 1000.83,221.5 998.167,221.5 995.5,221.5C 995.5,217.833 995.5,214.167 995.5,210.5 Z"/></g>
<g><path style="opacity:1" fill="#f3f5f4" d="M 1030.5,210.5 C 1033.48,210.104 1036.15,210.771 1038.5,212.5C 1039.66,219.476 1039.83,226.476 1039,233.5C 1038.63,234.416 1038.13,235.25 1037.5,236C 1033.22,237.458 1030.05,236.292 1028,232.5C 1027.33,226.167 1027.33,219.833 1028,213.5C 1029.04,212.627 1029.88,211.627 1030.5,210.5 Z"/></g>
<g><path style="opacity:1" fill="#aabab1" d="M 1078.5,207.5 C 1079.61,208.946 1079.78,210.613 1079,212.5C 1077.77,216.715 1076.27,220.715 1074.5,224.5C 1075.83,218.833 1077.17,213.167 1078.5,207.5 Z"/></g>
<g><path style="opacity:1" fill="#899f93" d="M 249.5,209.5 C 250.924,211.515 251.59,213.848 251.5,216.5C 250.076,214.485 249.41,212.152 249.5,209.5 Z"/></g>
<g><path style="opacity:1" fill="#466855" d="M 454.5,206.5 C 460.07,205.416 464.57,207.083 468,211.5C 468.494,213.134 468.66,214.801 468.5,216.5C 467.167,216.5 465.833,216.5 464.5,216.5C 464.133,210.844 461.133,209.011 455.5,211C 454.667,211.833 453.833,212.667 453,213.5C 452.333,220.167 452.333,226.833 453,233.5C 455.559,236.349 458.726,237.183 462.5,236C 464.155,234.556 464.822,232.722 464.5,230.5C 465.833,230.5 467.167,230.5 468.5,230.5C 468.413,235.088 466.413,238.588 462.5,241C 455.866,242.37 451.366,239.87 449,233.5C 448.333,226.833 448.333,220.167 449,213.5C 449.967,210.379 451.8,208.046 454.5,206.5 Z"/></g>
<g><path style="opacity:1" fill="#7a9285" d="M 488.5,209.5 C 487.943,214.165 486.61,218.498 484.5,222.5C 485.057,217.835 486.39,213.502 488.5,209.5 Z"/></g>
<g><path style="opacity:1" fill="#f5f7f6" d="M 494.5,223.5 C 494.286,225.144 494.62,226.644 495.5,228C 492.854,228.497 490.187,228.664 487.5,228.5C 488.707,224.214 489.707,219.88 490.5,215.5C 490.393,213.621 490.893,213.288 492,214.5C 492.993,217.474 493.826,220.474 494.5,223.5 Z"/></g>
<g><path style="opacity:1" fill="#eef1f0" d="M 579.5,227.5 C 578.378,228.156 577.045,228.489 575.5,228.5C 573.667,228.415 572.334,227.748 571.5,226.5C 574.345,210.923 577.012,211.256 579.5,227.5 Z"/></g>
<g><path style="opacity:1" fill="#7f9689" d="M 913.5,214.5 C 912.943,219.165 911.61,223.498 909.5,227.5C 910.057,222.835 911.39,218.502 913.5,214.5 Z"/></g>
<g><path style="opacity:1" fill="#436552" d="M 415.5,222.5 C 416.833,228.167 418.167,233.833 419.5,239.5C 418.504,239.586 417.671,239.252 417,238.5C 416.187,236.564 415.687,234.564 415.5,232.5C 410.968,232.182 406.634,232.515 402.5,233.5C 400.054,244.141 398.554,244.141 398,233.5C 401.175,224.639 404.342,215.806 407.5,207C 408.784,206.316 409.951,206.483 411,207.5C 413.095,212.347 414.595,217.347 415.5,222.5 Z"/></g>
<g><path style="opacity:1" fill="#a6b6ad" d="M 409.5,214.5 C 410.924,216.515 411.59,218.848 411.5,221.5C 410.076,219.485 409.41,217.152 409.5,214.5 Z"/></g>
<g><path style="opacity:1" fill="#f2f5f3" d="M 409.5,214.5 C 409.41,217.152 410.076,219.485 411.5,221.5C 411.674,223.861 412.007,226.194 412.5,228.5C 409.813,228.664 407.146,228.497 404.5,228C 405.38,226.644 405.714,225.144 405.5,223.5C 406.188,220.082 407.188,216.749 408.5,213.5C 409.107,213.624 409.44,213.957 409.5,214.5 Z"/></g>
<g><path style="opacity:1" fill="#617e6e" d="M 1116.5,218.5 C 1115.88,218.389 1115.38,218.056 1115,217.5C 1114.5,224.826 1114.33,232.159 1114.5,239.5C 1113.5,242.167 1112.5,242.167 1111.5,239.5C 1113.47,232.24 1114.13,224.573 1113.5,216.5C 1115.18,216.285 1116.18,216.952 1116.5,218.5 Z"/></g>
<g><path style="opacity:1" fill="#799284" d="M 1201.5,217.5 C 1200.94,222.165 1199.61,226.498 1197.5,230.5C 1198.06,225.835 1199.39,221.502 1201.5,217.5 Z"/></g>
<g><path style="opacity:1" fill="#8ca195" d="M 687.5,210.5 C 687.5,214.167 687.5,217.833 687.5,221.5C 690.5,221.5 693.5,221.5 696.5,221.5C 693.375,222.479 690.042,222.813 686.5,222.5C 686.183,218.298 686.517,214.298 687.5,210.5 Z"/></g>
<g><path style="opacity:1" fill="#9eafa5" d="M 995.5,210.5 C 995.5,214.167 995.5,217.833 995.5,221.5C 998.167,221.5 1000.83,221.5 1003.5,221.5C 1000.71,222.477 997.713,222.81 994.5,222.5C 994.183,218.298 994.517,214.298 995.5,210.5 Z"/></g>
<g><path style="opacity:1" fill="#c4cfc9" d="M 1116.5,218.5 C 1116.5,218.833 1116.5,219.167 1116.5,219.5C 1115.83,226.167 1115.17,232.833 1114.5,239.5C 1114.33,232.159 1114.5,224.826 1115,217.5C 1115.38,218.056 1115.88,218.389 1116.5,218.5 Z"/></g>
<g><path style="opacity:1" fill="#bdc9c3" d="M 962.5,210.5 C 962.5,214.5 962.5,218.5 962.5,222.5C 965.5,222.5 968.5,222.5 971.5,222.5C 968.375,223.479 965.042,223.813 961.5,223.5C 961.182,218.968 961.515,214.634 962.5,210.5 Z"/></g>
<g><path style="opacity:1" fill="#7f9689" d="M 732.5,221.5 C 734.61,225.502 735.943,229.835 736.5,234.5C 734.39,230.498 733.057,226.165 732.5,221.5 Z"/></g>
<g><path style="opacity:1" fill="#779082" d="M 415.5,222.5 C 417.266,226.285 418.766,230.285 420,234.5C 420.78,236.387 420.613,238.054 419.5,239.5C 418.167,233.833 416.833,228.167 415.5,222.5 Z"/></g>
<g><path style="opacity:1" fill="#c5d0ca" d="M 842.5,224.5 C 840.393,225.468 838.059,225.802 835.5,225.5C 835.5,228.833 835.5,232.167 835.5,235.5C 840.363,235.181 845.03,235.514 849.5,236.5C 844.5,236.5 839.5,236.5 834.5,236.5C 834.5,232.5 834.5,228.5 834.5,224.5C 837.167,224.5 839.833,224.5 842.5,224.5 Z"/></g>
<g><path style="opacity:1" fill="#426451" d="M 911.5,233.5 C 910.262,235.214 909.595,237.214 909.5,239.5C 908.5,239.5 907.5,239.5 906.5,239.5C 907.097,235.381 908.097,231.381 909.5,227.5C 911.61,223.498 912.943,219.165 913.5,214.5C 914.371,211.888 915.037,209.221 915.5,206.5C 918.238,205.965 920.072,206.965 921,209.5C 923.079,218.068 925.746,226.402 929,234.5C 930.31,238.284 929.143,240.618 925.5,241.5C 925.296,238.482 924.963,235.482 924.5,232.5C 919.968,232.182 915.634,232.515 911.5,233.5 Z"/></g>
<g><path style="opacity:1" fill="#eef1f0" d="M 921.5,226.5 C 920.666,227.748 919.333,228.415 917.5,228.5C 916.167,228.333 914.833,228.167 913.5,228C 914.38,226.644 914.714,225.144 914.5,223.5C 914.997,220.011 915.997,216.677 917.5,213.5C 919.3,217.704 920.634,222.038 921.5,226.5 Z"/></g>
<g><path style="opacity:1" fill="#40634f" d="M 1218.5,239.5 C 1217.18,239.67 1216.01,239.337 1215,238.5C 1214.43,236.277 1213.6,234.277 1212.5,232.5C 1208.3,232.183 1204.3,232.517 1200.5,233.5C 1199.26,235.214 1198.59,237.214 1198.5,239.5C 1197.5,239.5 1196.5,239.5 1195.5,239.5C 1195.5,238.5 1195.5,237.5 1195.5,236.5C 1195.97,234.421 1196.64,232.421 1197.5,230.5C 1199.61,226.498 1200.94,222.165 1201.5,217.5C 1201.81,214.053 1202.65,210.72 1204,207.5C 1205.67,206.167 1207.33,206.167 1209,207.5C 1212.74,218.07 1215.91,228.737 1218.5,239.5 Z"/></g>
<g><path style="opacity:1" fill="#e3e8e5" d="M 1205.5,213.5 C 1206.5,213.47 1207.16,213.97 1207.5,215C 1208.94,219.823 1210.28,224.656 1211.5,229.5C 1208.17,229.5 1204.83,229.5 1201.5,229.5C 1202.96,224.213 1204.29,218.88 1205.5,213.5 Z"/></g>
<g><path style="opacity:1" fill="#7a9285" d="M 222.5,222.5 C 223.924,224.515 224.59,226.848 224.5,229.5C 223.076,227.485 222.41,225.152 222.5,222.5 Z"/></g>
<g><path style="opacity:1" fill="#a6b6ad" d="M 411.5,221.5 C 413.04,223.838 413.706,226.505 413.5,229.5C 410.167,229.5 406.833,229.5 403.5,229.5C 403.595,227.214 404.262,225.214 405.5,223.5C 405.714,225.144 405.38,226.644 404.5,228C 407.146,228.497 409.813,228.664 412.5,228.5C 412.007,226.194 411.674,223.861 411.5,221.5 Z"/></g>
<g><path style="opacity:1" fill="#abbbb2" d="M 490.5,215.5 C 489.707,219.88 488.707,224.214 487.5,228.5C 490.187,228.664 492.854,228.497 495.5,228C 494.62,226.644 494.286,225.144 494.5,223.5C 495.738,225.214 496.405,227.214 496.5,229.5C 493.167,229.5 489.833,229.5 486.5,229.5C 486.85,224.46 488.184,219.794 490.5,215.5 Z"/></g>
<g><path style="opacity:1" fill="#7c9486" d="M 567.5,225.5 C 567.5,226.833 567.5,228.167 567.5,229.5C 566.833,230.5 566.167,231.5 565.5,232.5C 565.41,229.848 566.076,227.515 567.5,225.5 Z"/></g>
<g><path style="opacity:1" fill="#a4b5ab" d="M 571.5,226.5 C 572.334,227.748 573.667,228.415 575.5,228.5C 577.045,228.489 578.378,228.156 579.5,227.5C 580.043,227.56 580.376,227.893 580.5,228.5C 577.232,229.487 573.898,229.82 570.5,229.5C 570.263,228.209 570.596,227.209 571.5,226.5 Z"/></g>
<g><path style="opacity:1" fill="#3e624e" d="M 728.5,208.5 C 729.057,213.165 730.39,217.498 732.5,221.5C 733.057,226.165 734.39,230.498 736.5,234.5C 737.949,237.051 737.615,239.385 735.5,241.5C 734.197,238.957 733.197,236.29 732.5,233.5C 728.217,232.508 723.884,232.174 719.5,232.5C 719.313,234.564 718.813,236.564 718,238.5C 716.989,239.337 715.822,239.67 714.5,239.5C 716.95,228.647 720.117,217.981 724,207.5C 725.915,206.084 727.415,206.418 728.5,208.5 Z"/></g>
<g><path style="opacity:1" fill="#e4e9e6" d="M 725.5,213.5 C 728.688,218.222 730.355,223.556 730.5,229.5C 727.5,229.5 724.5,229.5 721.5,229.5C 722.456,224.05 723.789,218.717 725.5,213.5 Z"/></g>
<g><path style="opacity:1" fill="#a9b9b0" d="M 914.5,223.5 C 914.714,225.144 914.38,226.644 913.5,228C 914.833,228.167 916.167,228.333 917.5,228.5C 919.333,228.415 920.666,227.748 921.5,226.5C 922.404,227.209 922.737,228.209 922.5,229.5C 919.167,229.5 915.833,229.5 912.5,229.5C 912.595,227.214 913.262,225.214 914.5,223.5 Z"/></g>
<g><path style="opacity:1" fill="#95a99e" d="M 970.5,226.5 C 968.052,227.473 965.385,227.806 962.5,227.5C 962.817,231.702 962.483,235.702 961.5,239.5C 961.5,235.167 961.5,230.833 961.5,226.5C 964.5,226.5 967.5,226.5 970.5,226.5 Z"/></g>
<g><path style="opacity:1" fill="#c8d2cd" d="M 402.5,233.5 C 406.634,232.515 410.968,232.182 415.5,232.5C 415.687,234.564 416.187,236.564 417,238.5C 417.671,239.252 418.504,239.586 419.5,239.5C 419.052,241.465 418.052,241.798 416.5,240.5C 415.423,238.271 414.756,235.937 414.5,233.5C 410.5,233.5 406.5,233.5 402.5,233.5 Z"/></g>
<g><path style="opacity:1" fill="#a2b4aa" d="M 229.5,226.5 C 230.795,230.267 231.461,234.267 231.5,238.5C 229.864,234.79 229.198,230.79 229.5,226.5 Z"/></g>
<g><path style="opacity:1" fill="#547462" d="M 567.5,229.5 C 571.913,231.138 576.579,232.138 581.5,232.5C 577.167,232.5 572.833,232.5 568.5,232.5C 568.037,235.482 567.704,238.482 567.5,241.5C 564.879,241.523 563.545,240.189 563.5,237.5C 563.801,235.578 564.467,233.912 565.5,232.5C 566.167,231.5 566.833,230.5 567.5,229.5 Z"/></g>
<g><path style="opacity:1" fill="#436552" d="M 1078.5,207.5 C 1077.17,213.167 1075.83,218.833 1074.5,224.5C 1072.6,230.003 1070.93,235.67 1069.5,241.5C 1066.95,241.439 1065.45,240.106 1065,237.5C 1062.53,227.604 1059.37,217.937 1055.5,208.5C 1056.62,206.404 1058.12,206.07 1060,207.5C 1061.79,216.042 1064.29,224.375 1067.5,232.5C 1070.57,224.348 1073.07,216.014 1075,207.5C 1076.29,206.209 1077.46,206.209 1078.5,207.5 Z"/></g>
<g><path style="opacity:1" fill="#466855" d="M 1151.5,206.5 C 1156.39,205.784 1160.56,207.117 1164,210.5C 1164.5,212.473 1164.66,214.473 1164.5,216.5C 1163.5,216.5 1162.5,216.5 1161.5,216.5C 1160.44,210.905 1157.11,209.071 1151.5,211C 1151,211.5 1150.5,212 1150,212.5C 1149.07,220.272 1149.4,227.939 1151,235.5C 1153.4,236.602 1155.9,236.769 1158.5,236C 1160.16,234.556 1160.82,232.722 1160.5,230.5C 1161.83,230.5 1163.17,230.5 1164.5,230.5C 1161.41,243.02 1155.24,244.687 1146,235.5C 1145.33,227.5 1145.33,219.5 1146,211.5C 1147.73,209.598 1149.56,207.931 1151.5,206.5 Z"/></g>
<g><path style="opacity:1" fill="#adbcb4" d="M 1212.5,232.5 C 1213.6,234.277 1214.43,236.277 1215,238.5C 1216.01,239.337 1217.18,239.67 1218.5,239.5C 1218.38,240.586 1217.71,241.253 1216.5,241.5C 1213.64,239.297 1212.31,236.297 1212.5,232.5 Z"/></g>
<g><path style="opacity:1" fill="#466855" d="M 882.5,207.5 C 882.5,217.167 882.5,226.833 882.5,236.5C 886.833,236.5 891.167,236.5 895.5,236.5C 895.5,237.5 895.5,238.5 895.5,239.5C 890.167,239.5 884.833,239.5 879.5,239.5C 878.341,229.008 878.175,218.341 879,207.5C 880.292,206.209 881.458,206.209 882.5,207.5 Z"/></g>
<g><path style="opacity:1" fill="#a9b9b0" d="M 911.5,233.5 C 911.755,236.937 910.588,239.604 908,241.5C 906.97,241.164 906.47,240.497 906.5,239.5C 907.5,239.5 908.5,239.5 909.5,239.5C 909.595,237.214 910.262,235.214 911.5,233.5 Z"/></g>
<g><path style="opacity:1" fill="#b8c5be" d="M 1200.5,233.5 C 1200.48,235.927 1199.98,238.26 1199,240.5C 1197.64,241.38 1196.14,241.714 1194.5,241.5C 1194.22,239.585 1194.55,237.919 1195.5,236.5C 1195.5,237.5 1195.5,238.5 1195.5,239.5C 1196.5,239.5 1197.5,239.5 1198.5,239.5C 1198.59,237.214 1199.26,235.214 1200.5,233.5 Z"/></g>
<g><path style="opacity:1" fill="#abbab2" d="M 698.5,237.5 C 699.79,238.058 700.623,239.058 701,240.5C 701.383,239.944 701.883,239.611 702.5,239.5C 702.53,240.497 702.03,241.164 701,241.5C 699.405,240.644 698.572,239.311 698.5,237.5 Z"/></g>
<g><path style="opacity:1" fill="#859c8f" d="M 750.5,239.5 C 756.167,239.5 761.833,239.5 767.5,239.5C 765.085,240.814 762.252,241.481 759,241.5C 755.748,241.481 752.915,240.814 750.5,239.5 Z"/></g>
<g><path style="opacity:1" fill="#99aba1" d="M 796.5,239.5 C 796.833,239.5 797.167,239.5 797.5,239.5C 801.701,240.736 806.035,240.736 810.5,239.5C 810.389,240.117 810.056,240.617 809.5,241C 807.333,241.167 805.167,241.333 803,241.5C 800.39,241.467 798.223,240.8 796.5,239.5 Z"/></g>
<g><path style="opacity:1" fill="#839a8d" d="M 831.5,239.5 C 837.5,239.5 843.5,239.5 849.5,239.5C 846.913,240.816 843.913,241.483 840.5,241.5C 837.087,241.483 834.087,240.816 831.5,239.5 Z"/></g>
<g><path style="opacity:1" fill="#82998c" d="M 879.5,239.5 C 884.833,239.5 890.167,239.5 895.5,239.5C 893.257,240.812 890.59,241.478 887.5,241.5C 884.41,241.478 881.743,240.812 879.5,239.5 Z"/></g>
</svg>
