<?xml version="1.0" encoding="UTF-8"?>
<!DOCTYPE svg PUBLIC "-//W3C//DTD SVG 1.1//EN" "http://www.w3.org/Graphics/SVG/1.1/DTD/svg11.dtd">
<svg xmlns="http://www.w3.org/2000/svg" version="1.1" width="2005px" height="918px" style="shape-rendering:geometricPrecision; text-rendering:geometricPrecision; image-rendering:optimizeQuality; fill-rule:evenodd; clip-rule:evenodd" xmlns:xlink="http://www.w3.org/1999/xlink">
<g><path style="opacity:1" fill="#402e20" d="M 1159.5,207.5 C 1157.54,214.424 1156.87,221.757 1157.5,229.5C 1255.59,242.685 1348.26,272.519 1435.5,319C 1478.76,342.645 1516.76,372.979 1549.5,410C 1663.5,410.333 1777.5,410.667 1891.5,411C 1907.87,412.703 1918.04,421.537 1922,437.5C 1922.21,577.5 1921.87,717.5 1921,857.5C 1917.96,875.874 1907.12,886.041 1888.5,888C 1298.83,888.855 709.166,888.522 119.5,887C 101.959,884.126 91.7928,873.96 89,856.5C 89.1258,717.501 89.4591,578.501 90,439.5C 92.1548,423.678 100.988,413.845 116.5,410C 232.167,409.667 347.833,409.333 463.5,409C 489.326,379.773 518.659,354.773 551.5,334C 626.651,288.769 707.318,257.436 793.5,240C 843.334,229.667 893.667,223.167 944.5,220.5C 945.13,212.757 944.463,205.424 942.5,198.5C 941.465,196.795 941.465,195.128 942.5,193.5C 960.824,192.667 979.158,192.167 997.5,192C 994.339,190.587 991.339,188.92 988.5,187C 985.959,182.725 983.792,178.225 982,173.5C 977.36,169.106 972.193,165.606 966.5,163C 964.926,161.174 964.093,159.007 964,156.5C 959.515,152.592 954.848,148.926 950,145.5C 949.316,143.521 949.816,141.854 951.5,140.5C 949.433,139.866 947.6,138.866 946,137.5C 946.127,133.618 945.96,129.785 945.5,126C 947.774,123.675 948.941,120.841 949,117.5C 950.154,116.257 951.488,115.257 953,114.5C 953.219,113.062 953.719,111.729 954.5,110.5C 957.767,109.394 960.267,107.394 962,104.5C 968.328,101.758 974.828,99.4245 981.5,97.5C 985.135,97.5205 988.802,97.8539 992.5,98.5C 993.688,97.16 995.188,96.4934 997,96.5C 999.806,97.2411 1002.47,98.2411 1005,99.5C 1009.73,98.3623 1014.23,96.6956 1018.5,94.5C 1025.21,93.8211 1032.21,93.8211 1039.5,94.5C 1039.66,92.1732 1040.33,90.0065 1041.5,88C 1037.96,85.7175 1037.63,83.0509 1040.5,80C 1042.47,79.5045 1044.47,79.3379 1046.5,79.5C 1045.41,74.7607 1047.24,72.7607 1052,73.5C 1056.6,72.9303 1058.76,74.9303 1058.5,79.5C 1061.83,79.1635 1063.5,80.6635 1063.5,84C 1063.17,85.8133 1062.51,87.48 1061.5,89C 1062.32,90.49 1063.15,91.99 1064,93.5C 1065.57,92.1524 1067.41,91.4858 1069.5,91.5C 1072.34,92.7296 1075.18,92.7296 1078,91.5C 1081.48,92.1227 1084.98,92.6227 1088.5,93C 1092.89,95.6867 1097.39,98.1867 1102,100.5C 1105.08,98.115 1108.25,98.115 1111.5,100.5C 1112.75,99.9598 1113.91,99.2931 1115,98.5C 1124.57,101.544 1134.07,104.711 1143.5,108C 1145.55,110.387 1147.88,112.554 1150.5,114.5C 1151.69,118.205 1153.85,121.205 1157,123.5C 1156.92,128.094 1158.08,132.26 1160.5,136C 1159.62,137.586 1158.62,139.086 1157.5,140.5C 1158.43,141.768 1158.59,143.101 1158,144.5C 1153.16,151.182 1146.99,156.349 1139.5,160C 1137.87,164.144 1134.87,165.977 1130.5,165.5C 1130.72,166.675 1130.39,167.675 1129.5,168.5C 1126.25,170.375 1123.08,172.375 1120,174.5C 1119.44,179.083 1118.1,183.417 1116,187.5C 1113.6,188.856 1111.1,190.023 1108.5,191C 1125.21,191.148 1141.87,191.981 1158.5,193.5C 1159.44,198.1 1159.78,202.767 1159.5,207.5 Z"/></g>
<g><path style="opacity:1" fill="#d0b36d" d="M 1051.5,76.5 C 1053.31,77.9179 1053.97,79.9179 1053.5,82.5C 1055.66,82.1159 1057.33,82.7826 1058.5,84.5C 1056.95,85.4519 1055.29,85.7852 1053.5,85.5C 1053.33,89.1817 1053.5,92.8484 1054,96.5C 1055.71,97.3079 1056.54,98.6412 1056.5,100.5C 1053.28,100.581 1050.28,101.081 1047.5,102C 1045.7,101.363 1044.36,100.197 1043.5,98.5C 1045.74,97.5258 1048.08,97.1924 1050.5,97.5C 1050.06,93.8455 1049.72,90.1788 1049.5,86.5C 1047.02,86.9492 1045.02,86.2825 1043.5,84.5C 1045.51,82.8287 1047.84,82.162 1050.5,82.5C 1050.33,80.3792 1050.66,78.3792 1051.5,76.5 Z"/></g>
<g><path style="opacity:1" fill="#9e924e" d="M 1044.5,91.5 C 1045.78,92.3864 1045.78,93.3864 1044.5,94.5C 1043.44,93.5754 1043.44,92.5754 1044.5,91.5 Z"/></g>
<g><path style="opacity:1" fill="#b3a858" d="M 1068.5,95.5 C 1070.97,95.9473 1071.14,96.9473 1069,98.5C 1068.52,97.552 1068.35,96.552 1068.5,95.5 Z"/></g>
<g><path style="opacity:1" fill="#e3c577" d="M 1073.5,99.5 C 1082.6,100.428 1090.6,103.762 1097.5,109.5C 1098.4,111.246 1099.06,113.08 1099.5,115C 1098.88,117.543 1098.55,120.043 1098.5,122.5C 1090.3,119.784 1081.64,117.617 1072.5,116C 1067.8,115.352 1063.13,115.519 1058.5,116.5C 1058.68,114.064 1058.02,111.897 1056.5,110C 1057.7,109.097 1058.53,107.931 1059,106.5C 1063.51,103.32 1068.34,100.987 1073.5,99.5 Z"/></g>
<g><path style="opacity:1" fill="#a79c53" d="M 981.5,101.5 C 983.934,102.354 983.767,103.354 981,104.5C 980.53,103.423 980.697,102.423 981.5,101.5 Z"/></g>
<g><path style="opacity:1" fill="#e1c376" d="M 1029.5,101.5 C 1039.19,101.887 1043.52,106.887 1042.5,116.5C 1029.66,113.828 1017.5,115.495 1006,121.5C 1006.35,117.461 1007.85,113.794 1010.5,110.5C 1010.17,109.833 1009.83,109.167 1009.5,108.5C 1014.03,105.823 1018.87,103.823 1024,102.5C 1026.3,104.11 1028.14,103.777 1029.5,101.5 Z"/></g>
<g><path style="opacity:1" fill="#b0a657" d="M 1043.5,103.5 C 1045.34,103.639 1045.67,104.306 1044.5,105.5C 1043.7,105.043 1043.37,104.376 1043.5,103.5 Z"/></g>
<g><path style="opacity:1" fill="#aea356" d="M 1054.5,103.5 C 1055.78,104.386 1055.78,105.386 1054.5,106.5C 1053.44,105.575 1053.44,104.575 1054.5,103.5 Z"/></g>
<g><path style="opacity:1" fill="#aea356" d="M 1098.5,103.5 C 1099.71,104.497 1099.55,105.497 1098,106.5C 1097.53,105.423 1097.7,104.423 1098.5,103.5 Z"/></g>
<g><path style="opacity:1" fill="#b4a95a" d="M 1104.5,103.5 C 1105.68,103.281 1106.68,103.614 1107.5,104.5C 1105.95,105.798 1104.95,105.465 1104.5,103.5 Z"/></g>
<g><path style="opacity:1" fill="#a69a52" d="M 1114.5,103.5 C 1116.34,103.639 1116.67,104.306 1115.5,105.5C 1114.7,105.043 1114.37,104.376 1114.5,103.5 Z"/></g>
<g><path style="opacity:1" fill="#e3c577" d="M 986.5,105.5 C 991.841,105.154 997.174,105.821 1002.5,107.5C 1001.24,109.679 999.743,111.679 998,113.5C 997.788,116.252 996.955,118.752 995.5,121C 995.645,121.772 995.978,122.439 996.5,123C 985.873,121.018 975.873,122.685 966.5,128C 963.308,130.692 959.975,133.192 956.5,135.5C 954.104,132.775 954.104,129.941 956.5,127C 956.265,126.127 955.931,125.293 955.5,124.5C 957.685,121.113 960.519,118.446 964,116.5C 964.483,115.552 964.649,114.552 964.5,113.5C 968.077,112.099 971.744,110.932 975.5,110C 976.618,108.926 977.618,107.76 978.5,106.5C 981.567,108.096 984.234,107.763 986.5,105.5 Z"/></g>
<g><path style="opacity:1" fill="#bab05c" d="M 1123.5,104.5 C 1126.01,105.216 1126.01,106.216 1123.5,107.5C 1122.44,106.575 1122.44,105.575 1123.5,104.5 Z"/></g>
<g><path style="opacity:1" fill="#e3c477" d="M 1110.5,107.5 C 1121.03,109.425 1131.03,112.925 1140.5,118C 1141.83,120.667 1143.83,122.667 1146.5,124C 1145.48,125.049 1145.32,126.216 1146,127.5C 1147.35,129.019 1148.85,130.352 1150.5,131.5C 1149.62,132.548 1148.95,133.715 1148.5,135C 1149.61,136.882 1149.61,138.716 1148.5,140.5C 1137.41,129.69 1124.08,125.024 1108.5,126.5C 1108.58,125.07 1108.25,123.736 1107.5,122.5C 1110.17,119.833 1110.17,117.167 1107.5,114.5C 1107.96,111.844 1108.96,109.51 1110.5,107.5 Z"/></g>
<g><path style="opacity:1" fill="#8a7d44" d="M 1130.5,107.5 C 1133.96,107.667 1134.29,108.667 1131.5,110.5C 1130.61,109.675 1130.28,108.675 1130.5,107.5 Z"/></g>
<g><path style="opacity:1" fill="#beb45e" d="M 1048.5,111.5 C 1049.68,111.281 1050.68,111.614 1051.5,112.5C 1049.95,113.798 1048.95,113.465 1048.5,111.5 Z"/></g>
<g><path style="opacity:1" fill="#b5ab5a" d="M 1137.5,111.5 C 1141.59,111.218 1142.09,111.885 1139,113.5C 1137.97,113.164 1137.47,112.497 1137.5,111.5 Z"/></g>
<g><path style="opacity:1" fill="#b8ad5b" d="M 958.5,112.5 C 960.337,112.639 960.67,113.306 959.5,114.5C 958.702,114.043 958.369,113.376 958.5,112.5 Z"/></g>
<g><path style="opacity:1" fill="#a59a52" d="M 1049.5,116.5 C 1052.96,116.667 1053.29,117.667 1050.5,119.5C 1049.61,118.675 1049.28,117.675 1049.5,116.5 Z"/></g>
<g><path style="opacity:1" fill="#b4aa5a" d="M 1145.5,117.5 C 1147.34,117.639 1147.67,118.306 1146.5,119.5C 1145.7,119.043 1145.37,118.376 1145.5,117.5 Z"/></g>
<g><path style="opacity:1" fill="#e2c377" d="M 1021.5,119.5 C 1028.54,119.28 1035.54,119.614 1042.5,120.5C 1041.59,125.334 1042.92,129.334 1046.5,132.5C 1044.6,133.466 1042.6,133.799 1040.5,133.5C 1041.23,136.981 1042.57,140.314 1044.5,143.5C 1044.33,143.833 1044.17,144.167 1044,144.5C 1041.97,142.968 1039.8,141.635 1037.5,140.5C 1036.69,142.423 1036.19,144.423 1036,146.5C 1034.24,147.119 1033.08,148.286 1032.5,150C 1034.94,152.344 1037.27,154.844 1039.5,157.5C 1041.72,156.222 1044.06,155.222 1046.5,154.5C 1047.93,154.733 1048.43,155.4 1048,156.5C 1042.16,161.775 1036.32,161.775 1030.5,156.5C 1028.94,156.722 1027.61,157.389 1026.5,158.5C 1024.92,154.991 1025.58,151.991 1028.5,149.5C 1025.34,147.76 1023.01,145.26 1021.5,142C 1018.93,141.572 1016.59,141.906 1014.5,143C 1019.28,136.744 1017.61,134.077 1009.5,135C 1007.34,133.002 1005.67,130.668 1004.5,128C 1009.68,124.075 1015.35,121.241 1021.5,119.5 Z"/></g>
<g><path style="opacity:1" fill="#e4c578" d="M 1060.5,120.5 C 1072.33,119.416 1083.66,121.25 1094.5,126C 1098.4,134.063 1096.06,137.73 1087.5,137C 1086.9,138.825 1086.23,140.659 1085.5,142.5C 1084.26,141.754 1082.93,141.421 1081.5,141.5C 1081.8,143.604 1081.47,145.604 1080.5,147.5C 1075.87,147.885 1074.87,149.718 1077.5,153C 1080.8,154.599 1084.13,156.099 1087.5,157.5C 1087.02,158.478 1086.36,159.311 1085.5,160C 1080.91,161.075 1076.74,160.241 1073,157.5C 1068.15,160.379 1063.65,160.045 1059.5,156.5C 1061.74,155.526 1064.08,155.192 1066.5,155.5C 1066.35,154.448 1066.52,153.448 1067,152.5C 1069.05,151.902 1070.21,150.569 1070.5,148.5C 1068.95,146.098 1068.28,143.432 1068.5,140.5C 1065.75,140.274 1063.08,140.607 1060.5,141.5C 1060.17,141.167 1059.83,140.833 1059.5,140.5C 1062.39,136.005 1061.06,133.338 1055.5,132.5C 1059.44,130.311 1060.44,127.144 1058.5,123C 1059.06,121.989 1059.72,121.156 1060.5,120.5 Z"/></g>
<g><path style="opacity:1" fill="#96894a" d="M 1048.5,122.5 C 1049.98,122.238 1051.31,122.571 1052.5,123.5C 1051.68,125.111 1050.35,125.778 1048.5,125.5C 1048.5,124.5 1048.5,123.5 1048.5,122.5 Z"/></g>
<g><path style="opacity:1" fill="#b2a859" d="M 1150.5,124.5 C 1152.05,124.821 1152.71,125.821 1152.5,127.5C 1149.75,127.598 1149.09,126.598 1150.5,124.5 Z"/></g>
<g><path style="opacity:1" fill="#aba155" d="M 950.5,125.5 C 952.337,125.639 952.67,126.306 951.5,127.5C 950.702,127.043 950.369,126.376 950.5,125.5 Z"/></g>
<g><path style="opacity:1" fill="#e3c477" d="M 978.5,126.5 C 985.391,125.901 992.058,126.735 998.5,129C 1000.28,131.243 1000.78,133.743 1000,136.5C 998.89,138.037 997.39,138.703 995.5,138.5C 995.98,141.005 996.98,143.338 998.5,145.5C 996.577,146.308 994.577,146.808 992.5,147C 992.081,150.275 990.747,153.109 988.5,155.5C 991.187,158.689 994.687,160.356 999,160.5C 1001.65,158.836 1004.48,158.336 1007.5,159C 1004.89,162.553 1001.39,164.053 997,163.5C 993.958,163.635 991.125,162.969 988.5,161.5C 986.055,163.278 983.389,164.611 980.5,165.5C 974.205,163.447 973.038,159.781 977,154.5C 980.508,152.413 983.842,150.08 987,147.5C 987.49,146.207 987.657,144.873 987.5,143.5C 982.176,144.575 977.009,144.575 972,143.5C 971.51,142.207 971.343,140.873 971.5,139.5C 958.622,143.673 956.955,141.506 966.5,133C 970.434,130.536 974.434,128.369 978.5,126.5 Z"/></g>
<g><path style="opacity:1" fill="#b9af5c" d="M 1051.5,127.5 C 1052.4,128.209 1052.74,129.209 1052.5,130.5C 1049,130.306 1048.66,129.306 1051.5,127.5 Z"/></g>
<g><path style="opacity:1" fill="#e1c376" d="M 1105.5,130.5 C 1119.43,129.642 1132.1,133.142 1143.5,141C 1145.02,142.351 1146.35,143.851 1147.5,145.5C 1146.17,145.833 1144.83,146.167 1143.5,146.5C 1140.35,145.773 1137.35,144.94 1134.5,144C 1132.71,146.414 1131.04,148.914 1129.5,151.5C 1128.3,149.091 1126.63,147.091 1124.5,145.5C 1122.75,147.261 1120.75,148.594 1118.5,149.5C 1116.67,148.349 1114.67,147.682 1112.5,147.5C 1113.2,151.236 1114.2,154.903 1115.5,158.5C 1115.17,159.5 1114.83,160.5 1114.5,161.5C 1113.17,160.5 1111.83,159.5 1110.5,158.5C 1104.71,163.756 1099.05,163.756 1093.5,158.5C 1098.31,158.794 1102.97,157.794 1107.5,155.5C 1108.01,152.824 1108.17,150.157 1108,147.5C 1106.93,146.809 1105.77,146.309 1104.5,146C 1105.5,145 1106.5,144 1107.5,143C 1104.73,141.469 1102.73,139.302 1101.5,136.5C 1102.43,134.235 1103.76,132.235 1105.5,130.5 Z"/></g>
<g><path style="opacity:1" fill="#a79c53" d="M 950.5,132.5 C 951.782,133.708 951.782,135.042 950.5,136.5C 949.374,135.192 949.374,133.858 950.5,132.5 Z"/></g>
<g><path style="opacity:1" fill="#dabc72" d="M 1050.5,135.5 C 1051.82,136.942 1053.49,137.608 1055.5,137.5C 1055.45,140.928 1054.29,143.928 1052,146.5C 1048.43,145.021 1046.59,142.354 1046.5,138.5C 1048.97,138.912 1050.31,137.912 1050.5,135.5 Z"/></g>
<g><path style="opacity:1" fill="#dbbd73" d="M 1005.5,136.5 C 1007.3,137.794 1009.3,138.794 1011.5,139.5C 1009.63,142.234 1008.63,145.234 1008.5,148.5C 1004.99,147.995 1002.65,145.995 1001.5,142.5C 1003.25,140.754 1004.58,138.754 1005.5,136.5 Z"/></g>
<g><path style="opacity:1" fill="#dfc175" d="M 1096.5,138.5 C 1098.85,138.458 1100.18,139.625 1100.5,142C 1096.8,150.798 1093.8,150.632 1091.5,141.5C 1093.36,140.675 1095.03,139.675 1096.5,138.5 Z"/></g>
<g><path style="opacity:1" fill="#d7ba71" d="M 956.5,145.5 C 959.962,144.518 963.629,144.185 967.5,144.5C 967.477,146.927 966.977,149.26 966,151.5C 962.89,149.364 959.723,147.364 956.5,145.5 Z"/></g>
<g><path style="opacity:1" fill="#ddbf74" d="M 1062.5,144.5 C 1064.59,144.45 1065.92,145.45 1066.5,147.5C 1064.76,149.321 1063.26,151.321 1062,153.5C 1056.69,150.635 1056.85,147.635 1062.5,144.5 Z"/></g>
<g><path style="opacity:1" fill="#dabc72" d="M 1084.5,145.5 C 1085.82,145.33 1086.99,145.663 1088,146.5C 1088.12,148.936 1087.62,151.269 1086.5,153.5C 1083.65,153.97 1081.32,153.137 1079.5,151C 1082.08,149.924 1083.75,148.091 1084.5,145.5 Z"/></g>
<g><path style="opacity:1" fill="#dec074" d="M 1016.5,146.5 C 1019.04,147.357 1021.38,148.69 1023.5,150.5C 1022.75,151.736 1022.42,153.07 1022.5,154.5C 1019.31,154.98 1016.48,154.314 1014,152.5C 1013.33,151.5 1013.33,150.5 1014,149.5C 1015.04,148.627 1015.88,147.627 1016.5,146.5 Z"/></g>
<g><path style="opacity:1" fill="#dbbd73" d="M 1039.5,146.5 C 1046.86,148.519 1047.2,151.186 1040.5,154.5C 1039.35,152.851 1038.02,151.351 1036.5,150C 1038.43,149.578 1039.43,148.411 1039.5,146.5 Z"/></g>
<g><path style="opacity:1" fill="#dec074" d="M 1050.5,148.5 C 1054.7,148.426 1056.03,150.259 1054.5,154C 1048.55,155.227 1047.21,153.394 1050.5,148.5 Z"/></g>
<g><path style="opacity:1" fill="#dabc73" d="M 1089.5,150.5 C 1091.17,150.5 1092.83,150.5 1094.5,150.5C 1094.3,154.35 1092.47,155.35 1089,153.5C 1088.53,152.423 1088.7,151.423 1089.5,150.5 Z"/></g>
<g><path style="opacity:1" fill="#d2b46e" d="M 1100.5,149.5 C 1102.29,149.215 1103.95,149.548 1105.5,150.5C 1103.36,153.742 1100.36,155.742 1096.5,156.5C 1096.13,153.068 1097.46,150.734 1100.5,149.5 Z"/></g>
<g><path style="opacity:1" fill="#d1b46e" d="M 1135.5,149.5 C 1137.09,149.92 1138.59,150.586 1140,151.5C 1141.16,150.813 1142.33,150.647 1143.5,151C 1140.92,153.207 1138.09,155.04 1135,156.5C 1134.44,154.115 1134.61,151.782 1135.5,149.5 Z"/></g>
<g><path style="opacity:1" fill="#cbae6a" d="M 974.5,147.5 C 976.414,148.185 978.414,148.685 980.5,149C 977.827,150.001 975.493,151.501 973.5,153.5C 972.531,151.383 972.864,149.383 974.5,147.5 Z"/></g>
<g><path style="opacity:1" fill="#d8ba71" d="M 996.5,150.5 C 1004.58,151.24 1005.42,153.907 999,158.5C 997.214,156.901 995.047,156.067 992.5,156C 995.215,155.125 996.548,153.292 996.5,150.5 Z"/></g>
<g><path style="opacity:1" fill="#d7ba71" d="M 1006.5,151.5 C 1009.95,150.756 1011.62,152.09 1011.5,155.5C 1009.8,155.66 1008.13,155.494 1006.5,155C 1005.32,153.855 1005.32,152.688 1006.5,151.5 Z"/></g>
<g><path style="opacity:1" fill="#dcbe73" d="M 1123.5,151.5 C 1127.27,152.85 1127.94,155.017 1125.5,158C 1123.65,159.128 1121.65,159.628 1119.5,159.5C 1119.64,157.738 1119.31,156.071 1118.5,154.5C 1120.66,153.999 1122.32,152.999 1123.5,151.5 Z"/></g>
<g><path style="opacity:1" fill="#d5b870" d="M 968.5,154.5 C 971.91,154.384 973.244,156.05 972.5,159.5C 968.065,160.078 966.732,158.411 968.5,154.5 Z"/></g>
<g><path style="opacity:1" fill="#d6b970" d="M 1011.5,156.5 C 1015.63,156.895 1019.63,157.895 1023.5,159.5C 1018.8,162.443 1014.47,162.11 1010.5,158.5C 1010.86,157.817 1011.2,157.15 1011.5,156.5 Z"/></g>
<g><path style="opacity:1" fill="#dfc175" d="M 1043.5,166.5 C 1040.61,166.194 1037.95,166.527 1035.5,167.5C 1019.9,167.687 1004.4,169.02 989,171.5C 982.008,169.997 981.841,167.83 988.5,165C 993.01,166.276 997.677,166.609 1002.5,166C 1005.11,165.361 1007.45,164.194 1009.5,162.5C 1016.66,165.39 1023.49,164.723 1030,160.5C 1038.63,165.255 1046.46,164.255 1053.5,157.5C 1059.39,161.854 1065.89,163.188 1073,161.5C 1078.65,164.163 1084.32,164.163 1090,161.5C 1096.56,165.957 1103.22,166.29 1110,162.5C 1113.07,164.619 1116.23,166.619 1119.5,168.5C 1119.02,169.478 1118.36,170.311 1117.5,171C 1108.42,170.989 1099.42,169.989 1090.5,168C 1074.85,166.878 1059.19,166.378 1043.5,166.5 Z"/></g>
<g><path style="opacity:1" fill="#ceb16c" d="M 1129.5,157.5 C 1133.16,157.35 1134.16,158.85 1132.5,162C 1127.52,162.864 1126.52,161.364 1129.5,157.5 Z"/></g>
<g><path style="opacity:1" fill="#cfb16c" d="M 1120.5,162.5 C 1122.17,162.5 1123.83,162.5 1125.5,162.5C 1125.5,163.833 1125.5,165.167 1125.5,166.5C 1122.77,166.736 1120.44,165.903 1118.5,164C 1119.42,163.722 1120.08,163.222 1120.5,162.5 Z"/></g>
<g><path style="opacity:1" fill="#7e6741" d="M 1035.5,167.5 C 1037.95,166.527 1040.61,166.194 1043.5,166.5C 1049.83,167.167 1056.17,167.833 1062.5,168.5C 1055.5,168.5 1048.5,168.5 1041.5,168.5C 1039.74,167.539 1037.74,167.205 1035.5,167.5 Z"/></g>
<g><path style="opacity:1" fill="#dabc73" d="M 1041.5,168.5 C 1048.5,168.5 1055.5,168.5 1062.5,168.5C 1080.3,168.795 1097.97,170.462 1115.5,173.5C 1115.58,176.271 1115.08,178.937 1114,181.5C 1113.04,182.894 1111.71,183.561 1110,183.5C 1078.66,178.096 1047.16,177.096 1015.5,180.5C 1008.16,180.953 1001,182.286 994,184.5C 989.638,183.459 987.471,180.625 987.5,176C 987.905,175.055 988.572,174.388 989.5,174C 1006.71,171.066 1024.04,169.232 1041.5,168.5 Z"/></g>
<g><path style="opacity:1" fill="#483524" d="M 1029.5,171.5 C 1031.2,171.34 1032.87,171.506 1034.5,172C 1035.83,173.333 1035.83,174.667 1034.5,176C 1032.53,176.495 1030.53,176.662 1028.5,176.5C 1028.37,174.708 1028.7,173.042 1029.5,171.5 Z"/></g>
<g><path style="opacity:1" fill="#4e3b27" d="M 1044.5,170.5 C 1050.51,170.334 1056.51,170.501 1062.5,171C 1065.69,171.981 1066.02,173.314 1063.5,175C 1055.83,175.667 1048.17,175.667 1040.5,175C 1039.55,174.282 1039.38,173.449 1040,172.5C 1041.62,171.901 1043.12,171.234 1044.5,170.5 Z"/></g>
<g><path style="opacity:1" fill="#4c3926" d="M 1071.5,170.5 C 1076.16,170.015 1077.49,171.848 1075.5,176C 1069.55,177.227 1068.21,175.394 1071.5,170.5 Z"/></g>
<g><path style="opacity:1" fill="#473524" d="M 1005.5,172.5 C 1012.35,172.042 1019.01,172.542 1025.5,174C 1024.83,174.667 1024.17,175.333 1023.5,176C 1018.32,176.839 1013.16,177.672 1008,178.5C 1005.91,178.464 1003.91,178.131 1002,177.5C 1001.33,176.5 1001.33,175.5 1002,174.5C 1003.3,173.915 1004.47,173.249 1005.5,172.5 Z"/></g>
<g><path style="opacity:1" fill="#483524" d="M 1081.5,172.5 C 1086.84,172.334 1092.18,172.501 1097.5,173C 1105.29,174.386 1105.45,176.219 1098,178.5C 1092.78,177.952 1087.62,177.119 1082.5,176C 1080.63,175.047 1080.29,173.88 1081.5,172.5 Z"/></g>
<g><path style="opacity:1" fill="#4c3927" d="M 993.5,175.5 C 998.587,175.284 999.587,177.118 996.5,181C 993.763,182.08 992.096,181.246 991.5,178.5C 991.942,177.261 992.609,176.261 993.5,175.5 Z"/></g>
<g><path style="opacity:1" fill="#493625" d="M 1107.5,174.5 C 1111.48,174.629 1112.82,176.463 1111.5,180C 1105.55,181.227 1104.21,179.394 1107.5,174.5 Z"/></g>
<g><path style="opacity:1" fill="#e2c377" d="M 1030.5,181.5 C 1056.33,180.428 1082,181.928 1107.5,186C 1102.73,187.958 1097.73,189.291 1092.5,190C 1075.16,190.754 1057.83,191.587 1040.5,192.5C 1037.5,192.167 1034.5,191.833 1031.5,191.5C 1030.58,188.242 1030.25,184.909 1030.5,181.5 Z"/></g>
<g><path style="opacity:1" fill="#ceb16c" d="M 1024.5,182.5 C 1025.5,182.5 1026.5,182.5 1027.5,182.5C 1027.5,185.833 1027.5,189.167 1027.5,192.5C 1026.5,192.5 1025.5,192.5 1024.5,192.5C 1024.5,189.167 1024.5,185.833 1024.5,182.5 Z"/></g>
<g><path style="opacity:1" fill="#ceb16c" d="M 1005.5,184.5 C 1007.5,184.5 1009.5,184.5 1011.5,184.5C 1011.66,186.199 1011.49,187.866 1011,189.5C 1006.98,190.208 1003.15,189.375 999.5,187C 1001.5,185.981 1003.5,185.148 1005.5,184.5 Z"/></g>
<g><path style="opacity:1" fill="#bba062" d="M 1014.5,183.5 C 1015.73,184.152 1016.39,185.319 1016.5,187C 1016.17,188.167 1015.83,189.333 1015.5,190.5C 1014.53,188.257 1014.19,185.924 1014.5,183.5 Z"/></g>
<g><path style="opacity:1" fill="#c9ac69" d="M 1018.5,183.5 C 1019.5,183.5 1020.5,183.5 1021.5,183.5C 1021.5,186.167 1021.5,188.833 1021.5,191.5C 1020.5,191.5 1019.5,191.5 1018.5,191.5C 1018.5,188.833 1018.5,186.167 1018.5,183.5 Z"/></g>
<g><path style="opacity:1" fill="#90784b" d="M 996.5,198.5 C 981.167,198.5 965.833,198.5 950.5,198.5C 950.5,208.833 950.5,219.167 950.5,229.5C 949.506,219.013 949.172,208.346 949.5,197.5C 965.342,197.17 981.009,197.504 996.5,198.5 Z"/></g>
<g><path style="opacity:1" fill="#e6c779" d="M 950.5,229.5 C 950.5,219.167 950.5,208.833 950.5,198.5C 965.833,198.5 981.167,198.5 996.5,198.5C 1048.83,197.984 1101.17,197.65 1153.5,197.5C 1152.75,234.492 1152.25,271.492 1152,308.5C 1151.15,318.847 1150.15,329.181 1149,339.5C 1144.96,334.898 1140.13,331.398 1134.5,329C 1136.26,326.07 1137.42,322.903 1138,319.5C 1138.67,311.833 1138.67,304.167 1138,296.5C 1134.34,287.462 1130.67,278.462 1127,269.5C 1126.45,261.761 1124.45,254.428 1121,247.5C 1121.51,238.035 1119.01,229.535 1113.5,222C 1109.45,221.676 1106.62,223.509 1105,227.5C 1101.87,242.21 1097.54,256.544 1092,270.5C 1091.48,282.404 1089.48,294.07 1086,305.5C 1085.67,295.167 1085.33,284.833 1085,274.5C 1078.39,267.887 1071.72,261.221 1065,254.5C 1064.67,250.833 1064.33,247.167 1064,243.5C 1061.11,240.952 1058.61,238.118 1056.5,235C 1057.23,233.235 1058.57,232.068 1060.5,231.5C 1057.79,229.722 1055.79,227.389 1054.5,224.5C 1053.05,225.85 1052.38,227.516 1052.5,229.5C 1050.57,229.231 1048.9,229.731 1047.5,231C 1049.14,232.748 1051.14,233.915 1053.5,234.5C 1050.8,236.942 1047.97,239.276 1045,241.5C 1045.6,244.161 1045.43,246.827 1044.5,249.5C 1040,246.502 1035.17,244.168 1030,242.5C 1025.08,245.585 1020.58,249.252 1016.5,253.5C 1013.92,242.996 1010.75,232.663 1007,222.5C 1004.73,219.537 1001.9,218.87 998.5,220.5C 995.179,225.625 993.679,231.292 994,237.5C 991.077,243.015 988.41,248.682 986,254.5C 985.443,264.085 982.443,272.752 977,280.5C 972.351,294.654 974.184,307.821 982.5,320C 973.362,326.655 963.529,332.155 953,336.5C 951.38,300.855 950.547,265.188 950.5,229.5 Z"/></g>
<g><path style="opacity:0.996" fill="#e6c879" d="M 942.5,198.5 C 944.463,205.424 945.13,212.757 944.5,220.5C 893.667,223.167 843.334,229.667 793.5,240C 707.318,257.436 626.651,288.769 551.5,334C 518.659,354.773 489.326,379.773 463.5,409C 347.833,409.333 232.167,409.667 116.5,410C 100.988,413.845 92.1548,423.678 90,439.5C 89.4591,578.501 89.1258,717.501 89,856.5C 91.7928,873.96 101.959,884.126 119.5,887C 709.166,888.522 1298.83,888.855 1888.5,888C 1907.12,886.041 1917.96,875.874 1921,857.5C 1921.87,717.5 1922.21,577.5 1922,437.5C 1918.04,421.537 1907.87,412.703 1891.5,411C 1777.5,410.667 1663.5,410.333 1549.5,410C 1516.76,372.979 1478.76,342.645 1435.5,319C 1348.26,272.519 1255.59,242.685 1157.5,229.5C 1156.87,221.757 1157.54,214.424 1159.5,207.5C 1260.41,220.859 1355.74,251.359 1445.5,299C 1488.4,322.547 1526.74,352.214 1560.5,388C 1671.5,388.333 1782.5,388.667 1893.5,389C 1920.99,391.823 1937.82,406.656 1944,433.5C 1944.77,576.503 1944.43,719.503 1943,862.5C 1937.09,891.569 1919.25,907.402 1889.5,910C 1301.17,909.945 712.834,909.612 124.5,909C 94.5468,907.359 75.7135,892.192 68,863.5C 67.5222,720.832 67.8556,578.165 69,435.5C 73.5842,407.916 89.7508,392.083 117.5,388C 229.5,387.667 341.5,387.333 453.5,387C 486.885,351.606 524.885,322.273 567.5,299C 660.728,249.926 759.728,218.926 864.5,206C 890.415,202.568 916.415,200.068 942.5,198.5 Z"/></g>
<g><path style="opacity:1" fill="#5b7632" d="M 997.5,321.5 C 999.673,317.304 1000.67,312.804 1000.5,308C 999.69,301.4 998.356,294.9 996.5,288.5C 996.76,285.393 997.426,282.393 998.5,279.5C 1000.34,269.574 1003.01,259.741 1006.5,250C 1005.01,242.02 1003.01,234.187 1000.5,226.5C 1001.25,224.534 1002.42,224.2 1004,225.5C 1008.94,240.175 1012.28,255.175 1014,270.5C 1017.73,276.122 1019.23,282.289 1018.5,289C 1018.85,299.094 1016.68,308.594 1012,317.5C 1010.47,319.846 1008.63,320.846 1006.5,320.5C 1008.23,316.981 1009.56,313.314 1010.5,309.5C 1009.71,306.025 1008.21,305.692 1006,308.5C 1005.6,312.019 1004.6,315.352 1003,318.5C 1001.74,320.607 999.903,321.607 997.5,321.5 Z"/></g>
<g><path style="opacity:1" fill="#5a7131" d="M 1116.5,245.5 C 1114.53,243.572 1113.03,241.239 1112,238.5C 1111.2,234.688 1110.37,231.021 1109.5,227.5C 1109.81,226.522 1110.48,225.855 1111.5,225.5C 1115.63,231.545 1117.29,238.211 1116.5,245.5 Z"/></g>
<g><path style="opacity:1" fill="#dfc275" d="M 1000.5,226.5 C 1003.01,234.187 1005.01,242.02 1006.5,250C 1003.01,259.741 1000.34,269.574 998.5,279.5C 997.426,282.393 996.76,285.393 996.5,288.5C 998.356,294.9 999.69,301.4 1000.5,308C 1000.67,312.804 999.673,317.304 997.5,321.5C 983.626,319.605 977.626,311.605 979.5,297.5C 979.667,293.833 979.833,290.167 980,286.5C 980.333,286.167 980.667,285.833 981,285.5C 981.407,289.33 982.74,289.997 985,287.5C 986.018,276.741 987.685,266.074 990,255.5C 992.06,250.38 994.393,245.38 997,240.5C 997.767,235.587 998.934,230.92 1000.5,226.5 Z"/></g>
<g><path style="opacity:1" fill="#e0c175" d="M 1033.5,320.5 C 1031.83,320.5 1030.17,320.5 1028.5,320.5C 1028.5,317.167 1028.5,313.833 1028.5,310.5C 1028.87,297.498 1029.37,284.498 1030,271.5C 1035.67,265.833 1041.33,260.167 1047,254.5C 1048.17,250.954 1048.84,247.287 1049,243.5C 1050.71,241.457 1052.71,239.79 1055,238.5C 1060.85,242.61 1063.19,248.276 1062,255.5C 1067.74,261.908 1074.07,267.575 1081,272.5C 1081.86,274.087 1082.53,275.754 1083,277.5C 1083.55,292.175 1083.39,306.842 1082.5,321.5C 1080.83,321.5 1079.17,321.5 1077.5,321.5C 1077.98,308.364 1076.98,295.364 1074.5,282.5C 1073.97,281.808 1073.31,281.308 1072.5,281C 1060.5,280.19 1048.5,279.857 1036.5,280C 1035.87,280.75 1035.37,281.584 1035,282.5C 1034.83,295.34 1034.33,308.007 1033.5,320.5 Z"/></g>
<g><path style="opacity:1" fill="#4f3d28" d="M 1053.5,243.5 C 1055.39,243.297 1056.89,243.963 1058,245.5C 1058.5,248.482 1058.66,251.482 1058.5,254.5C 1056.17,254.5 1053.83,254.5 1051.5,254.5C 1051.04,250.498 1051.7,246.831 1053.5,243.5 Z"/></g>
<g><path style="opacity:1" fill="#e4c578" d="M 1029.5,245.5 C 1035.02,246.929 1040.02,249.429 1044.5,253C 1039,258.5 1033.5,264 1028,269.5C 1024.91,267.706 1021.75,266.039 1018.5,264.5C 1017.35,261.554 1017.18,258.554 1018,255.5C 1022.03,252.302 1025.86,248.968 1029.5,245.5 Z"/></g>
<g><path style="opacity:1" fill="#463423" d="M 998.5,279.5 C 996.418,279.528 994.584,278.861 993,277.5C 991.517,274.298 991.183,270.964 992,267.5C 995.65,262.69 998.15,257.357 999.5,251.5C 1000.32,250.614 1001.32,250.281 1002.5,250.5C 1002.66,253.518 1002.5,256.518 1002,259.5C 996.19,265.363 995.023,272.03 998.5,279.5 Z"/></g>
<g><path style="opacity:1" fill="#a79c53" d="M 1052.5,246.5 C 1053.24,246.369 1053.91,246.536 1054.5,247C 1053.62,248.356 1053.29,249.856 1053.5,251.5C 1057.17,252.045 1056.84,252.378 1052.5,252.5C 1052.5,250.5 1052.5,248.5 1052.5,246.5 Z"/></g>
<g><path style="opacity:1" fill="#5a7631" d="M 1116.5,248.5 C 1119.87,253.891 1121.37,259.891 1121,266.5C 1122.75,270.327 1124.75,273.993 1127,277.5C 1127.85,283.877 1129.85,289.877 1133,295.5C 1133.67,304.167 1133.67,312.833 1133,321.5C 1129.07,331.986 1121.57,335.653 1110.5,332.5C 1110.66,329.482 1110.5,326.482 1110,323.5C 1107.65,319.809 1106.15,315.809 1105.5,311.5C 1107.5,306.833 1109.5,302.167 1111.5,297.5C 1111.33,296.5 1111.17,295.5 1111,294.5C 1109,291.833 1107,289.167 1105,286.5C 1104.24,277.118 1106.9,268.784 1113,261.5C 1114.78,257.294 1115.94,252.961 1116.5,248.5 Z"/></g>
<g><path style="opacity:1" fill="#4d3a27" d="M 1047.5,263.5 C 1052.51,263.334 1057.51,263.501 1062.5,264C 1063.46,267.73 1063.79,271.563 1063.5,275.5C 1058.49,275.666 1053.49,275.499 1048.5,275C 1046.23,271.39 1045.9,267.557 1047.5,263.5 Z"/></g>
<g><path style="opacity:1" fill="#dec174" d="M 1109.5,227.5 C 1110.37,231.021 1111.2,234.688 1112,238.5C 1113.03,241.239 1114.53,243.572 1116.5,245.5C 1116.5,246.5 1116.5,247.5 1116.5,248.5C 1115.94,252.961 1114.78,257.294 1113,261.5C 1106.9,268.784 1104.24,277.118 1105,286.5C 1107,289.167 1109,291.833 1111,294.5C 1111.17,295.5 1111.33,296.5 1111.5,297.5C 1109.5,302.167 1107.5,306.833 1105.5,311.5C 1106.15,315.809 1107.65,319.809 1110,323.5C 1110.5,326.482 1110.66,329.482 1110.5,332.5C 1109.17,327.163 1106.67,322.163 1103,317.5C 1101.09,313.471 1101.09,309.471 1103,305.5C 1105.17,302.667 1107.33,299.833 1109.5,297C 1108.41,295.635 1107.07,295.301 1105.5,296C 1100.63,299.238 1097.97,303.738 1097.5,309.5C 1099.36,316.678 1101.69,323.678 1104.5,330.5C 1093.3,328.305 1088.64,321.471 1090.5,310C 1092.2,297.163 1094.03,284.33 1096,271.5C 1101.62,257.131 1106.12,242.465 1109.5,227.5 Z"/></g>
<g><path style="opacity:1" fill="#493625" d="M 1109.5,252.5 C 1110.5,252.5 1111.5,252.5 1112.5,252.5C 1112.18,259.132 1109.68,264.799 1105,269.5C 1104.5,271.473 1104.34,273.473 1104.5,275.5C 1102.86,275.714 1101.36,275.38 1100,274.5C 1099.33,272.167 1099.33,269.833 1100,267.5C 1103.79,262.883 1106.95,257.883 1109.5,252.5 Z"/></g>
<g><path style="opacity:1" fill="#c5aa67" d="M 1049.5,264.5 C 1052.95,263.756 1054.62,265.09 1054.5,268.5C 1052.5,268.5 1050.5,268.5 1048.5,268.5C 1048.43,267.041 1048.77,265.708 1049.5,264.5 Z"/></g>
<g><path style="opacity:1" fill="#e1c476" d="M 1004.5,268.5 C 1005.5,268.5 1006.5,268.5 1007.5,268.5C 1005.51,273.747 1006.34,278.414 1010,282.5C 1011.83,287.445 1011.99,292.445 1010.5,297.5C 1009.17,297.5 1007.83,297.5 1006.5,297.5C 1006.67,292.821 1006.5,288.155 1006,283.5C 1002.21,278.767 1001.71,273.767 1004.5,268.5 Z"/></g>
<g><path style="opacity:1" fill="#aa9358" d="M 1048.5,270.5 C 1049.83,270.5 1051.17,270.5 1052.5,270.5C 1052.5,271.5 1052.5,272.5 1052.5,273.5C 1050.03,273.912 1048.69,272.912 1048.5,270.5 Z"/></g>
<g><path style="opacity:1" fill="#cdb16b" d="M 1057.5,265.5 C 1058.5,265.5 1059.5,265.5 1060.5,265.5C 1060.81,268.247 1060.48,270.914 1059.5,273.5C 1058.75,271.187 1058.09,268.52 1057.5,265.5 Z"/></g>
<g><path style="opacity:1" fill="#dec375" d="M 1109.5,276.5 C 1111.39,276.297 1112.89,276.963 1114,278.5C 1114.15,282.098 1115.15,285.431 1117,288.5C 1123.68,293.535 1126.85,300.201 1126.5,308.5C 1124.83,308.5 1123.17,308.5 1121.5,308.5C 1121.65,305.393 1121.15,302.393 1120,299.5C 1116.62,295.783 1113.62,291.783 1111,287.5C 1109.06,283.907 1108.56,280.241 1109.5,276.5 Z"/></g>
<g><path style="opacity:1" fill="#d4b76f" d="M 1055.5,282.5 C 1060.84,282.334 1066.18,282.501 1071.5,283C 1072,283.5 1072.5,284 1073,284.5C 1074.2,288.716 1074.87,293.049 1075,297.5C 1075.5,305.493 1075.67,313.493 1075.5,321.5C 1069.17,321.5 1062.83,321.5 1056.5,321.5C 1056.63,308.484 1056.3,295.484 1055.5,282.5 Z"/></g>
<g><path style="opacity:1" fill="#4a3825" d="M 990.5,285.5 C 991.833,285.5 993.167,285.5 994.5,285.5C 993.507,289.491 992.507,293.491 991.5,297.5C 991.594,299.923 992.094,302.256 993,304.5C 996.032,306.805 996.865,309.638 995.5,313C 994.552,313.483 993.552,313.649 992.5,313.5C 989.825,308.303 987.825,302.803 986.5,297C 986.944,292.833 988.278,288.999 990.5,285.5 Z"/></g>
<g><path style="opacity:1" fill="#d3b66f" d="M 1037.5,281.5 C 1043.17,281.5 1048.83,281.5 1054.5,281.5C 1054.5,294.833 1054.5,308.167 1054.5,321.5C 1048.17,321.5 1041.83,321.5 1035.5,321.5C 1035.38,308.071 1036.05,294.737 1037.5,281.5 Z"/></g>
<g><path style="opacity:1" fill="#523f2a" d="M 1039.5,285.5 C 1043.51,285.334 1047.51,285.501 1051.5,286C 1052.44,288.719 1052.78,291.552 1052.5,294.5C 1048.49,294.666 1044.49,294.499 1040.5,294C 1039.56,291.281 1039.22,288.448 1039.5,285.5 Z"/></g>
<g><path style="opacity:1" fill="#dfc175" d="M 1041.5,286.5 C 1044.19,286.336 1046.85,286.503 1049.5,287C 1050.41,288.699 1050.74,290.533 1050.5,292.5C 1047.17,292.5 1043.83,292.5 1040.5,292.5C 1040.33,290.379 1040.66,288.379 1041.5,286.5 Z"/></g>
<g><path style="opacity:1" fill="#4b3825" d="M 1058.5,285.5 C 1062.57,285.234 1066.57,285.567 1070.5,286.5C 1071.48,289.086 1071.81,291.753 1071.5,294.5C 1067.17,294.5 1062.83,294.5 1058.5,294.5C 1058.5,291.5 1058.5,288.5 1058.5,285.5 Z"/></g>
<g><path style="opacity:1" fill="#d5b76f" d="M 1060.5,286.5 C 1063.19,286.336 1065.85,286.503 1068.5,287C 1069.42,289.041 1069.76,291.208 1069.5,293.5C 1066.48,293.665 1063.48,293.498 1060.5,293C 1059.23,290.837 1059.23,288.67 1060.5,286.5 Z"/></g>
<g><path style="opacity:1" fill="#dbbd73" d="M 1019.5,269.5 C 1021.84,270.086 1024.01,271.086 1026,272.5C 1026.96,288.226 1026.46,303.893 1024.5,319.5C 1022.47,318.139 1020.81,316.473 1019.5,314.5C 1024.68,299.451 1024.68,284.451 1019.5,269.5 Z"/></g>
<g><path style="opacity:1" fill="#513e29" d="M 1058.5,297.5 C 1062.57,297.234 1066.57,297.567 1070.5,298.5C 1071.48,301.428 1071.82,304.428 1071.5,307.5C 1067.43,307.766 1063.43,307.433 1059.5,306.5C 1058.52,303.572 1058.18,300.572 1058.5,297.5 Z"/></g>
<g><path style="opacity:1" fill="#dfc175" d="M 1059.5,299.5 C 1062.83,299.5 1066.17,299.5 1069.5,299.5C 1069.5,301.5 1069.5,303.5 1069.5,305.5C 1066.43,305.817 1063.43,305.484 1060.5,304.5C 1059.69,302.929 1059.36,301.262 1059.5,299.5 Z"/></g>
<g><path style="opacity:1" fill="#4e3a27" d="M 1039.5,297.5 C 1043.64,297.146 1047.64,297.646 1051.5,299C 1052.44,301.719 1052.78,304.552 1052.5,307.5C 1048.49,307.666 1044.49,307.499 1040.5,307C 1039.55,303.943 1039.22,300.777 1039.5,297.5 Z"/></g>
<g><path style="opacity:1" fill="#e2c376" d="M 1040.5,299.5 C 1043.83,299.5 1047.17,299.5 1050.5,299.5C 1050.5,301.5 1050.5,303.5 1050.5,305.5C 1047.17,305.5 1043.83,305.5 1040.5,305.5C 1040.5,303.5 1040.5,301.5 1040.5,299.5 Z"/></g>
<g><path style="opacity:1" fill="#56422c" d="M 1039.5,309.5 C 1043.18,309.335 1046.85,309.501 1050.5,310C 1052.48,312.497 1052.98,315.331 1052,318.5C 1048.2,319.806 1044.36,319.806 1040.5,318.5C 1039.52,315.572 1039.18,312.572 1039.5,309.5 Z"/></g>
<g><path style="opacity:1" fill="#54402a" d="M 1060.5,309.5 C 1064.19,309.781 1067.85,310.281 1071.5,311C 1072.44,313.719 1072.78,316.552 1072.5,319.5C 1068.49,319.666 1064.49,319.499 1060.5,319C 1059.21,315.835 1059.21,312.668 1060.5,309.5 Z"/></g>
<g><path style="opacity:1" fill="#dcbe73" d="M 1040.5,311.5 C 1043.83,311.5 1047.17,311.5 1050.5,311.5C 1050.5,313.5 1050.5,315.5 1050.5,317.5C 1047.48,317.665 1044.48,317.498 1041.5,317C 1040.59,315.301 1040.26,313.467 1040.5,311.5 Z"/></g>
<g><path style="opacity:1" fill="#e0c275" d="M 1061.5,311.5 C 1064.5,311.5 1067.5,311.5 1070.5,311.5C 1070.5,313.5 1070.5,315.5 1070.5,317.5C 1067.43,317.817 1064.43,317.484 1061.5,316.5C 1060.19,314.801 1060.19,313.135 1061.5,311.5 Z"/></g>
<g><path style="opacity:1" fill="#c1a565" d="M 1377.5,315.5 C 1379.29,315.215 1380.95,315.548 1382.5,316.5C 1380.52,320.565 1377.52,322.232 1373.5,321.5C 1374.84,319.471 1376.18,317.471 1377.5,315.5 Z"/></g>
<g><path style="opacity:1" fill="#846d44" d="M 1028.5,310.5 C 1028.5,313.833 1028.5,317.167 1028.5,320.5C 1030.17,320.5 1031.83,320.5 1033.5,320.5C 1031.74,321.461 1029.74,321.795 1027.5,321.5C 1027.19,317.629 1027.52,313.962 1028.5,310.5 Z"/></g>
<g><path style="opacity:1" fill="#e5c778" d="M 1024.5,331.5 C 1027.57,337.304 1030.9,342.97 1034.5,348.5C 1033.31,349.429 1031.98,349.762 1030.5,349.5C 1030.72,348.325 1030.39,347.325 1029.5,346.5C 1027.56,345.811 1025.56,345.311 1023.5,345C 1020.13,340.068 1018.13,340.568 1017.5,346.5C 1015.5,346.167 1013.5,345.833 1011.5,345.5C 1011.35,346.552 1011.52,347.552 1012,348.5C 1014.42,352.344 1017.09,356.01 1020,359.5C 1024.2,358.895 1028.36,358.062 1032.5,357C 1033.17,356 1033.83,355 1034.5,354C 1033.27,352.817 1033.27,351.651 1034.5,350.5C 1037.35,353.188 1040.35,355.688 1043.5,358C 1062.56,357.884 1081.56,356.717 1100.5,354.5C 1101.22,348.62 1099.22,343.953 1094.5,340.5C 1094.43,335.767 1092.1,333.434 1087.5,333.5C 1087.79,331.265 1087.46,329.265 1086.5,327.5C 1085.05,326.698 1083.38,326.198 1081.5,326C 1080.66,324.989 1080.33,323.822 1080.5,322.5C 1082.17,322.5 1083.83,322.5 1085.5,322.5C 1085.34,320.473 1085.5,318.473 1086,316.5C 1086.29,318.952 1086.96,321.285 1088,323.5C 1092.08,328.249 1096.74,332.249 1102,335.5C 1103.89,338.618 1105.23,341.951 1106,345.5C 1106.33,351.5 1106.67,357.5 1107,363.5C 1107.5,364 1108,364.5 1108.5,365C 1112.49,365.499 1116.49,365.666 1120.5,365.5C 1120.19,362.753 1120.52,360.086 1121.5,357.5C 1123.28,359.538 1124.94,361.704 1126.5,364C 1128.89,364.287 1131.22,364.787 1133.5,365.5C 1135.13,363.703 1137.13,362.536 1139.5,362C 1142.12,360.026 1141.95,358.193 1139,356.5C 1138.51,355.207 1138.34,353.873 1138.5,352.5C 1136.27,352.38 1134.1,352.713 1132,353.5C 1130.76,351.424 1128.92,350.424 1126.5,350.5C 1126.79,352.288 1126.45,353.955 1125.5,355.5C 1123.93,354.691 1122.26,354.357 1120.5,354.5C 1120.45,348.597 1121.61,342.931 1124,337.5C 1126.7,336.81 1128.86,335.31 1130.5,333C 1133.55,332.143 1136.22,332.81 1138.5,335C 1141.33,337.833 1144.17,340.667 1147,343.5C 1142.86,385.318 1120.36,411.484 1079.5,422C 1030.29,431.133 991.458,415.299 963,374.5C 957.818,364.766 954.651,354.433 953.5,343.5C 954.648,341.851 955.981,340.351 957.5,339C 968.019,334.245 978.019,328.745 987.5,322.5C 990.168,322.745 992.002,324.079 993,326.5C 993.901,335.816 994.568,345.15 995,354.5C 998.744,355.626 1002.58,355.793 1006.5,355C 1008.37,347.096 1009.54,338.929 1010,330.5C 1011.96,325.899 1014.63,321.899 1018,318.5C 1019.66,319.484 1021.32,320.484 1023,321.5C 1023.25,324.919 1023.75,328.253 1024.5,331.5 Z"/></g>
<g><path style="opacity:1" fill="#e0c276" d="M 637.5,323.5 C 640.119,323.232 642.619,323.565 645,324.5C 647.779,332.841 650.946,341.007 654.5,349C 652.19,349.497 649.857,349.663 647.5,349.5C 647.643,347.738 647.309,346.071 646.5,344.5C 642.893,343.511 639.226,343.177 635.5,343.5C 635.167,345.5 634.833,347.5 634.5,349.5C 632.396,349.799 630.396,349.466 628.5,348.5C 631.799,340.243 634.799,331.91 637.5,323.5 Z"/></g>
<g><path style="opacity:1" fill="#e0c276" d="M 667.5,323.5 C 669.5,323.5 671.5,323.5 673.5,323.5C 673.666,331.174 673.5,338.841 673,346.5C 667.56,351.669 662.226,351.669 657,346.5C 656.505,344.527 656.338,342.527 656.5,340.5C 658.167,340.5 659.833,340.5 661.5,340.5C 661.015,345.159 662.848,346.492 667,344.5C 667.5,337.508 667.666,330.508 667.5,323.5 Z"/></g>
<g><path style="opacity:1" fill="#e3c477" d="M 681.5,323.5 C 683.167,323.5 684.833,323.5 686.5,323.5C 686.334,329.842 686.5,336.175 687,342.5C 689.971,346.092 693.304,346.425 697,343.5C 697.5,336.842 697.666,330.175 697.5,323.5C 699.5,323.5 701.5,323.5 703.5,323.5C 703.666,330.508 703.5,337.508 703,344.5C 700.389,348.66 696.556,350.66 691.5,350.5C 687.405,350.537 684.239,348.87 682,345.5C 681.5,338.174 681.334,330.841 681.5,323.5 Z"/></g>
<g><path style="opacity:1" fill="#e3c577" d="M 725.5,339.5 C 725.56,340.043 725.893,340.376 726.5,340.5C 727.495,334.872 727.829,329.206 727.5,323.5C 729.167,323.5 730.833,323.5 732.5,323.5C 732.5,332.167 732.5,340.833 732.5,349.5C 729.635,349.945 727.135,349.278 725,347.5C 722,342.5 719,337.5 716,332.5C 715.501,338.157 715.334,343.824 715.5,349.5C 713.833,349.5 712.167,349.5 710.5,349.5C 710.5,340.833 710.5,332.167 710.5,323.5C 712.604,323.201 714.604,323.534 716.5,324.5C 719.774,329.39 722.774,334.39 725.5,339.5 Z"/></g>
<g><path style="opacity:1" fill="#a48955" d="M 727.5,323.5 C 727.829,329.206 727.495,334.872 726.5,340.5C 725.893,340.376 725.56,340.043 725.5,339.5C 726.167,334.167 726.833,328.833 727.5,323.5 Z"/></g>
<g><path style="opacity:1" fill="#e1c376" d="M 737.5,323.5 C 744.5,323.5 751.5,323.5 758.5,323.5C 758.5,325.167 758.5,326.833 758.5,328.5C 755.833,328.5 753.167,328.5 750.5,328.5C 750.5,335.5 750.5,342.5 750.5,349.5C 748.5,349.5 746.5,349.5 744.5,349.5C 744.5,342.5 744.5,335.5 744.5,328.5C 742.167,328.5 739.833,328.5 737.5,328.5C 737.5,326.833 737.5,325.167 737.5,323.5 Z"/></g>
<g><path style="opacity:1" fill="#e1c276" d="M 766.5,323.5 C 769.119,323.232 771.619,323.565 774,324.5C 776.779,332.841 779.946,341.007 783.5,349C 781.19,349.497 778.857,349.663 776.5,349.5C 776.643,347.738 776.309,346.071 775.5,344.5C 771.893,343.511 768.226,343.177 764.5,343.5C 764.167,345.5 763.833,347.5 763.5,349.5C 761.396,349.799 759.396,349.466 757.5,348.5C 760.799,340.243 763.799,331.91 766.5,323.5 Z"/></g>
<g><path style="opacity:1" fill="#e3c477" d="M 811.5,349.5 C 811.666,343.491 811.499,337.491 811,331.5C 810.487,332.527 809.987,333.527 809.5,334.5C 808.014,338.812 806.514,343.146 805,347.5C 803,350.167 801,350.167 799,347.5C 794.053,327.629 792.22,328.295 793.5,349.5C 791.833,349.5 790.167,349.5 788.5,349.5C 788.5,340.833 788.5,332.167 788.5,323.5C 791.167,323.5 793.833,323.5 796.5,323.5C 798.421,328.761 800.254,334.094 802,339.5C 802.667,338.833 803.333,338.167 804,337.5C 805.071,332.792 806.237,328.126 807.5,323.5C 810.5,323.5 813.5,323.5 816.5,323.5C 816.5,332.167 816.5,340.833 816.5,349.5C 814.833,349.5 813.167,349.5 811.5,349.5 Z"/></g>
<g><path style="opacity:1" fill="#e6c779" d="M 823.5,323.5 C 829.833,323.5 836.167,323.5 842.5,323.5C 842.5,325.167 842.5,326.833 842.5,328.5C 837.833,328.5 833.167,328.5 828.5,328.5C 828.5,330.167 828.5,331.833 828.5,333.5C 832.833,333.5 837.167,333.5 841.5,333.5C 841.5,335.167 841.5,336.833 841.5,338.5C 837.167,338.5 832.833,338.5 828.5,338.5C 828.5,340.5 828.5,342.5 828.5,344.5C 833.5,344.5 838.5,344.5 843.5,344.5C 843.5,346.167 843.5,347.833 843.5,349.5C 836.833,349.5 830.167,349.5 823.5,349.5C 823.5,340.833 823.5,332.167 823.5,323.5 Z"/></g>
<g><path style="opacity:1" fill="#e3c477" d="M 864.5,339.5 C 864.56,340.043 864.893,340.376 865.5,340.5C 866.495,334.872 866.829,329.206 866.5,323.5C 868.167,323.5 869.833,323.5 871.5,323.5C 871.5,332.167 871.5,340.833 871.5,349.5C 868.635,349.945 866.135,349.278 864,347.5C 861,342.5 858,337.5 855,332.5C 854.501,338.157 854.334,343.824 854.5,349.5C 852.833,349.5 851.167,349.5 849.5,349.5C 849.5,340.833 849.5,332.167 849.5,323.5C 851.604,323.201 853.604,323.534 855.5,324.5C 858.774,329.39 861.774,334.39 864.5,339.5 Z"/></g>
<g><path style="opacity:1" fill="#a38954" d="M 866.5,323.5 C 866.829,329.206 866.495,334.872 865.5,340.5C 864.893,340.376 864.56,340.043 864.5,339.5C 865.167,334.167 865.833,328.833 866.5,323.5 Z"/></g>
<g><path style="opacity:1" fill="#e1c376" d="M 877.5,323.5 C 884.5,323.5 891.5,323.5 898.5,323.5C 898.5,325.167 898.5,326.833 898.5,328.5C 895.833,328.5 893.167,328.5 890.5,328.5C 890.5,335.5 890.5,342.5 890.5,349.5C 888.5,349.5 886.5,349.5 884.5,349.5C 884.5,342.5 884.5,335.5 884.5,328.5C 882.167,328.5 879.833,328.5 877.5,328.5C 877.5,326.833 877.5,325.167 877.5,323.5 Z"/></g>
<g><path style="opacity:1" fill="#e0c175" d="M 1026.5,324.5 C 1031.5,323.5 1033.5,325.5 1032.5,330.5C 1034.29,330.366 1035.96,330.699 1037.5,331.5C 1037.34,333.199 1037.51,334.866 1038,336.5C 1041.81,338.223 1043.47,341.223 1043,345.5C 1047.98,346.941 1049.81,350.274 1048.5,355.5C 1043.52,355.762 1039.69,353.762 1037,349.5C 1033.92,343.669 1030.59,338.002 1027,332.5C 1026.5,329.854 1026.34,327.187 1026.5,324.5 Z"/></g>
<g><path style="opacity:1" fill="#675235" d="M 1064.5,325.5 C 1054.5,325.5 1044.5,325.5 1034.5,325.5C 1034.5,326.5 1034.5,327.5 1034.5,328.5C 1033.57,327.432 1033.23,326.099 1033.5,324.5C 1044.01,324.172 1054.35,324.506 1064.5,325.5 Z"/></g>
<g><path style="opacity:1" fill="#e5c678" d="M 1268.5,324.5 C 1274.59,324.139 1280.59,324.639 1286.5,326C 1289.37,329.943 1289.03,333.61 1285.5,337C 1291.76,340.872 1292.09,345.205 1286.5,350C 1280.59,351.361 1274.59,351.861 1268.5,351.5C 1268.5,342.5 1268.5,333.5 1268.5,324.5 Z"/></g>
<g><path style="opacity:1" fill="#dbbd73" d="M 1064.5,325.5 C 1069.21,325.173 1073.88,325.507 1078.5,326.5C 1079.9,327.842 1079.57,328.676 1077.5,329C 1062.99,329.827 1048.66,329.661 1034.5,328.5C 1034.5,327.5 1034.5,326.5 1034.5,325.5C 1044.5,325.5 1054.5,325.5 1064.5,325.5 Z"/></g>
<g><path style="opacity:1" fill="#e3c577" d="M 1200.5,325.5 C 1207.06,324.919 1213.39,325.752 1219.5,328C 1224.68,334.952 1224.68,341.952 1219.5,349C 1213.39,351.248 1207.06,352.081 1200.5,351.5C 1200.5,342.833 1200.5,334.167 1200.5,325.5 Z"/></g>
<g><path style="opacity:1" fill="#e6c779" d="M 1229.5,325.5 C 1235.83,325.5 1242.17,325.5 1248.5,325.5C 1248.5,327.167 1248.5,328.833 1248.5,330.5C 1243.83,330.5 1239.17,330.5 1234.5,330.5C 1234.5,332.167 1234.5,333.833 1234.5,335.5C 1238.83,335.5 1243.17,335.5 1247.5,335.5C 1247.5,337.167 1247.5,338.833 1247.5,340.5C 1243.17,340.5 1238.83,340.5 1234.5,340.5C 1234.5,342.5 1234.5,344.5 1234.5,346.5C 1239.5,346.5 1244.5,346.5 1249.5,346.5C 1249.5,348.167 1249.5,349.833 1249.5,351.5C 1242.83,351.5 1236.17,351.5 1229.5,351.5C 1229.5,342.833 1229.5,334.167 1229.5,325.5 Z"/></g>
<g><path style="opacity:1" fill="#e6c779" d="M 1296.5,325.5 C 1302.83,325.5 1309.17,325.5 1315.5,325.5C 1315.5,327.167 1315.5,328.833 1315.5,330.5C 1310.83,330.5 1306.17,330.5 1301.5,330.5C 1301.5,332.167 1301.5,333.833 1301.5,335.5C 1305.83,335.5 1310.17,335.5 1314.5,335.5C 1314.5,337.167 1314.5,338.833 1314.5,340.5C 1310.17,340.5 1305.83,340.5 1301.5,340.5C 1301.5,342.5 1301.5,344.5 1301.5,346.5C 1306.5,346.5 1311.5,346.5 1316.5,346.5C 1316.5,348.167 1316.5,349.833 1316.5,351.5C 1309.83,351.5 1303.17,351.5 1296.5,351.5C 1296.5,342.833 1296.5,334.167 1296.5,325.5 Z"/></g>
<g><path style="opacity:1" fill="#e0c276" d="M 1319.5,325.5 C 1326.5,325.5 1333.5,325.5 1340.5,325.5C 1340.5,327.167 1340.5,328.833 1340.5,330.5C 1337.83,330.5 1335.17,330.5 1332.5,330.5C 1332.5,337.5 1332.5,344.5 1332.5,351.5C 1330.5,351.5 1328.5,351.5 1326.5,351.5C 1326.5,344.5 1326.5,337.5 1326.5,330.5C 1324.17,330.5 1321.83,330.5 1319.5,330.5C 1319.5,328.833 1319.5,327.167 1319.5,325.5 Z"/></g>
<g><path style="opacity:1" fill="#e0c175" d="M 1344.5,326.5 C 1346.69,325.203 1349.03,325.203 1351.5,326.5C 1353,328.833 1354.5,331.167 1356,333.5C 1357.5,331.167 1359,328.833 1360.5,326.5C 1362.76,325.353 1365.1,325.186 1367.5,326C 1364.58,329.845 1361.91,333.845 1359.5,338C 1362.49,342.323 1365.49,346.656 1368.5,351C 1366.17,351.667 1363.83,351.667 1361.5,351C 1359.66,348.331 1357.66,345.831 1355.5,343.5C 1353.59,345.657 1351.92,347.991 1350.5,350.5C 1348.24,351.647 1345.9,351.814 1343.5,351C 1346.7,346.636 1349.7,342.136 1352.5,337.5C 1349.78,333.792 1347.11,330.125 1344.5,326.5 Z"/></g>
<g><path style="opacity:1" fill="#e6c779" d="M 1373.5,325.5 C 1375.17,325.5 1376.83,325.5 1378.5,325.5C 1378.5,334.167 1378.5,342.833 1378.5,351.5C 1376.83,351.5 1375.17,351.5 1373.5,351.5C 1373.5,342.833 1373.5,334.167 1373.5,325.5 Z"/></g>
<g><path style="opacity:1" fill="#483524" d="M 1273.5,329.5 C 1276.19,329.336 1278.85,329.503 1281.5,330C 1284.17,331.667 1284.17,333.333 1281.5,335C 1278.85,335.497 1276.19,335.664 1273.5,335.5C 1273.5,333.5 1273.5,331.5 1273.5,329.5 Z"/></g>
<g><path style="opacity:1" fill="#dfc175" d="M 997.5,325.5 C 998.5,325.5 999.5,325.5 1000.5,325.5C 1000.34,327.527 1000.5,329.527 1001,331.5C 1002.3,332.784 1003.46,332.617 1004.5,331C 1002.5,326.667 1003.83,325 1008.5,326C 1006.93,327.826 1006.09,329.993 1006,332.5C 1005.23,338.817 1004.73,345.151 1004.5,351.5C 1002.83,351.5 1001.17,351.5 999.5,351.5C 999.081,342.791 998.414,334.124 997.5,325.5 Z"/></g>
<g><path style="opacity:1" fill="#473524" d="M 1205.5,330.5 C 1216.66,329.776 1220,334.609 1215.5,345C 1212.31,346.316 1208.98,346.816 1205.5,346.5C 1205.5,341.167 1205.5,335.833 1205.5,330.5 Z"/></g>
<g><path style="opacity:1" fill="#4f3c28" d="M 640.5,330.5 C 642.383,332.763 643.716,335.43 644.5,338.5C 642.235,339.647 639.902,339.814 637.5,339C 638.798,336.273 639.798,333.44 640.5,330.5 Z"/></g>
<g><path style="opacity:1" fill="#4f3b28" d="M 769.5,330.5 C 771.383,332.763 772.716,335.43 773.5,338.5C 771.235,339.647 768.902,339.814 766.5,339C 767.798,336.273 768.798,333.44 769.5,330.5 Z"/></g>
<g><path style="opacity:1" fill="#4a3725" d="M 1026.5,324.5 C 1026.34,327.187 1026.5,329.854 1027,332.5C 1030.59,338.002 1033.92,343.669 1037,349.5C 1039.69,353.762 1043.52,355.762 1048.5,355.5C 1049.81,350.274 1047.98,346.941 1043,345.5C 1043.47,341.223 1041.81,338.223 1038,336.5C 1037.51,334.866 1037.34,333.199 1037.5,331.5C 1038.17,331.5 1038.83,331.5 1039.5,331.5C 1039.5,332.833 1039.5,334.167 1039.5,335.5C 1054.5,335.5 1069.5,335.5 1084.5,335.5C 1084.5,334.167 1084.5,332.833 1084.5,331.5C 1079.83,331.5 1075.17,331.5 1070.5,331.5C 1075.57,330.176 1080.73,330.176 1086,331.5C 1086.49,330.207 1086.66,328.873 1086.5,327.5C 1087.46,329.265 1087.79,331.265 1087.5,333.5C 1092.1,333.434 1094.43,335.767 1094.5,340.5C 1099.22,343.953 1101.22,348.62 1100.5,354.5C 1081.56,356.717 1062.56,357.884 1043.5,358C 1040.35,355.688 1037.35,353.188 1034.5,350.5C 1033.27,351.651 1033.27,352.817 1034.5,354C 1033.83,355 1033.17,356 1032.5,357C 1028.36,358.062 1024.2,358.895 1020,359.5C 1017.09,356.01 1014.42,352.344 1012,348.5C 1011.52,347.552 1011.35,346.552 1011.5,345.5C 1013.5,345.833 1015.5,346.167 1017.5,346.5C 1018.13,340.568 1020.13,340.068 1023.5,345C 1025.56,345.311 1027.56,345.811 1029.5,346.5C 1030.39,347.325 1030.72,348.325 1030.5,349.5C 1031.98,349.762 1033.31,349.429 1034.5,348.5C 1030.9,342.97 1027.57,337.304 1024.5,331.5C 1025.17,329.167 1025.83,326.833 1026.5,324.5 Z"/></g>
<g><path style="opacity:1" fill="#dec074" d="M 1039.5,331.5 C 1049.83,331.5 1060.17,331.5 1070.5,331.5C 1075.17,331.5 1079.83,331.5 1084.5,331.5C 1084.5,332.833 1084.5,334.167 1084.5,335.5C 1069.5,335.5 1054.5,335.5 1039.5,335.5C 1039.5,334.167 1039.5,332.833 1039.5,331.5 Z"/></g>
<g><path style="opacity:1" fill="#826b43" d="M 811.5,349.5 C 810.833,344.5 810.167,339.5 809.5,334.5C 809.987,333.527 810.487,332.527 811,331.5C 811.499,337.491 811.666,343.491 811.5,349.5 Z"/></g>
<g><path style="opacity:1" fill="#d6b870" d="M 1107.5,337.5 C 1108.57,336.566 1109.9,336.232 1111.5,336.5C 1110.83,340.5 1112.5,342.167 1116.5,341.5C 1116.5,339.833 1116.5,338.167 1116.5,336.5C 1117.5,336.5 1118.5,336.5 1119.5,336.5C 1119.24,339.016 1118.41,341.35 1117,343.5C 1116.5,349.825 1116.33,356.158 1116.5,362.5C 1114.23,362.859 1112.4,362.192 1111,360.5C 1110.67,354.833 1110.33,349.167 1110,343.5C 1109.76,341.148 1108.93,339.148 1107.5,337.5 Z"/></g>
<g><path style="opacity:1" fill="#dec074" d="M 1077.5,338.5 C 1082.17,338.5 1086.83,338.5 1091.5,338.5C 1091.33,339.822 1091.66,340.989 1092.5,342C 1091.5,342.333 1090.5,342.667 1089.5,343C 1074.55,344.582 1059.55,344.915 1044.5,344C 1043.62,342.644 1043.29,341.144 1043.5,339.5C 1055.01,339.828 1066.35,339.495 1077.5,338.5 Z"/></g>
<g><path style="opacity:1" fill="#473524" d="M 1273.5,339.5 C 1276.52,339.335 1279.52,339.502 1282.5,340C 1285.03,342.084 1285.03,344.084 1282.5,346C 1279.52,346.498 1276.52,346.665 1273.5,346.5C 1273.5,344.167 1273.5,341.833 1273.5,339.5 Z"/></g>
<g><path style="opacity:1" fill="#4b3826" d="M 977.5,344.5 C 980.841,343.843 982.841,345.176 983.5,348.5C 985.059,349.074 986.559,349.74 988,350.5C 987.063,352.674 986.229,355.007 985.5,357.5C 981.154,357.666 976.821,357.499 972.5,357C 970.73,353.313 969.397,349.479 968.5,345.5C 970.929,345.585 972.929,346.585 974.5,348.5C 975.524,347.148 976.524,345.815 977.5,344.5 Z"/></g>
<g><path style="opacity:1" fill="#e1c276" d="M 1093.5,345.5 C 1096.83,345.162 1098.49,346.662 1098.5,350C 1098.25,351.326 1097.58,352.326 1096.5,353C 1081.21,354.727 1065.88,355.561 1050.5,355.5C 1050.5,353.167 1050.5,350.833 1050.5,348.5C 1061.17,348.667 1071.84,348.5 1082.5,348C 1086.43,347.758 1090.1,346.925 1093.5,345.5 Z"/></g>
<g><path style="opacity:1" fill="#d4b76f" d="M 979.5,348.5 C 981.305,349.237 982.971,350.237 984.5,351.5C 984.167,352.167 983.833,352.833 983.5,353.5C 980.232,354.487 976.898,354.82 973.5,354.5C 973.105,351.477 974.105,350.477 976.5,351.5C 977.855,350.812 978.855,349.812 979.5,348.5 Z"/></g>
<g><path style="opacity:1" fill="#dbbd73" d="M 1021.5,347.5 C 1023.48,349.168 1025.81,349.834 1028.5,349.5C 1028.29,351.144 1028.62,352.644 1029.5,354C 1026.17,354.667 1022.83,354.667 1019.5,354C 1018.39,352.187 1019.06,351.354 1021.5,351.5C 1021.5,350.167 1021.5,348.833 1021.5,347.5 Z"/></g>
<g><path style="opacity:1" fill="#d7b970" d="M 1128.5,355.5 C 1130.92,355.192 1133.26,355.526 1135.5,356.5C 1138.36,359.481 1137.69,361.481 1133.5,362.5C 1130.14,362.129 1127.47,360.629 1125.5,358C 1127.12,357.764 1128.12,356.931 1128.5,355.5 Z"/></g>
<g><path style="opacity:1" fill="#927a4c" d="M 1192.5,379.5 C 1194.2,379.34 1195.87,379.506 1197.5,380C 1201.96,385.747 1205.79,391.914 1209,398.5C 1209.78,401.429 1209.61,404.263 1208.5,407C 1201.36,405.085 1194.03,404.418 1186.5,405C 1162.29,416.858 1137.79,428.025 1113,438.5C 1111.29,438.561 1109.96,437.894 1109,436.5C 1107.44,431.282 1107.1,425.949 1108,420.5C 1109.17,419.333 1110.33,418.167 1111.5,417C 1138.56,404.468 1165.56,391.968 1192.5,379.5 Z"/></g>
<g><path style="opacity:1" fill="#473524" d="M 1062.5,383.5 C 1066.15,383.162 1067.82,384.828 1067.5,388.5C 1070.13,387.908 1072.79,387.575 1075.5,387.5C 1075.5,388.833 1075.5,390.167 1075.5,391.5C 1081.21,390.678 1082.54,392.511 1079.5,397C 1081.15,398.555 1081.48,400.221 1080.5,402C 1073.81,402.558 1067.14,402.891 1060.5,403C 1059.47,398.097 1057.47,393.597 1054.5,389.5C 1056.37,385.664 1058.37,385.664 1060.5,389.5C 1061.29,387.505 1061.96,385.505 1062.5,383.5 Z"/></g>
<g><path style="opacity:1" fill="#927a4c" d="M 966.5,388.5 C 967.239,388.369 967.906,388.536 968.5,389C 972.122,394.956 976.789,399.956 982.5,404C 958.128,415.13 933.794,426.463 909.5,438C 906.364,439.041 903.864,438.207 902,435.5C 900.582,430.572 900.249,425.572 901,420.5C 903.124,419.378 904.957,417.878 906.5,416C 926.475,406.52 946.475,397.354 966.5,388.5 Z"/></g>
<g><path style="opacity:1" fill="#d9bb72" d="M 1064.5,390.5 C 1065.79,391.29 1066.96,392.29 1068,393.5C 1071.22,390.272 1072.72,390.938 1072.5,395.5C 1074.23,395.185 1075.89,395.019 1077.5,395C 1075.61,396.079 1075.27,397.413 1076.5,399C 1072.17,399.667 1067.83,399.667 1063.5,399C 1062.13,397.758 1061.13,396.258 1060.5,394.5C 1061.27,393.289 1062.11,393.289 1063,394.5C 1063.41,393.099 1063.91,391.766 1064.5,390.5 Z"/></g>
<g><path style="opacity:1" fill="#927a4c" d="M 1017.5,515.5 C 1012.85,515.998 1008.18,516.331 1003.5,516.5C 1005.63,515.686 1007.96,515.186 1010.5,515C 998.615,491.396 987.115,467.563 976,443.5C 974.954,441.91 973.787,440.41 972.5,439C 967.566,437.023 962.732,434.857 958,432.5C 956.827,428.695 957.993,425.861 961.5,424C 968.056,421.204 974.723,418.704 981.5,416.5C 983.383,416.876 984.883,417.876 986,419.5C 999.016,445.531 1012.02,471.531 1025,497.5C 1025.67,500.521 1026.01,503.521 1026,506.5C 1022.96,509.369 1020.13,512.369 1017.5,515.5 Z"/></g>
<g><path style="opacity:1" fill="#927a4c" d="M 1185.5,416.5 C 1188.04,416.104 1190.21,416.771 1192,418.5C 1205,444.5 1218,470.5 1231,496.5C 1232.4,500.072 1232.74,503.739 1232,507.5C 1229.13,510.704 1225.96,513.537 1222.5,516C 1219.21,516.746 1216.71,515.58 1215,512.5C 1203.92,488.681 1192.59,465.014 1181,441.5C 1176.84,437.837 1172.01,435.337 1166.5,434C 1162.4,430.351 1162.73,427.018 1167.5,424C 1173.7,421.724 1179.7,419.224 1185.5,416.5 Z"/></g>
<g><path style="opacity:1" fill="#927a4c" d="M 961.5,449.5 C 964.325,449.081 966.491,450.081 968,452.5C 972.373,458.876 975.873,465.71 978.5,473C 978.561,474.711 977.894,476.044 976.5,477C 969.249,475.719 961.916,475.052 954.5,475C 931.622,486.273 908.622,497.273 885.5,508C 882.331,508.978 879.497,508.478 877,506.5C 873.754,498.45 875.254,491.617 881.5,486C 908.376,474.058 935.043,461.891 961.5,449.5 Z"/></g>
<g><path style="opacity:1" fill="#927a4c" d="M 1168.5,449.5 C 1170.72,449.178 1172.56,449.845 1174,451.5C 1177.33,457.5 1180.67,463.5 1184,469.5C 1184.77,472.099 1184.6,474.599 1183.5,477C 1176.24,476.024 1168.9,475.358 1161.5,475C 1138.83,485.667 1116.17,496.333 1093.5,507C 1089.49,509.461 1085.99,508.961 1083,505.5C 1082.33,500.5 1082.33,495.5 1083,490.5C 1084.56,488.641 1086.39,487.141 1088.5,486C 1115.38,474.058 1142.04,461.891 1168.5,449.5 Z"/></g>
<g><path style="opacity:1" fill="#e5c678" d="M 1685.5,453.5 C 1697.19,453.168 1708.85,453.501 1720.5,454.5C 1707.31,469.185 1694.31,484.019 1681.5,499C 1675.18,499.5 1668.84,499.666 1662.5,499.5C 1669.62,483.925 1677.29,468.592 1685.5,453.5 Z"/></g>
<g><path style="opacity:1" fill="#927a4c" d="M 978.5,523.5 C 971.986,526.997 965.986,531.331 960.5,536.5C 957.627,529.082 954.46,521.749 951,514.5C 948.833,512.333 946.667,510.167 944.5,508C 940.356,506.734 936.523,504.901 933,502.5C 931.959,499.364 932.793,496.864 935.5,495C 942.775,490.91 950.441,488.243 958.5,487C 965.068,499.309 971.735,511.475 978.5,523.5 Z"/></g>
<g><path style="opacity:1" fill="#927a4c" d="M 1181.5,519.5 C 1177.86,518.886 1174.2,518.552 1170.5,518.5C 1166.7,517.517 1162.7,517.183 1158.5,517.5C 1157.87,514.357 1156.2,511.857 1153.5,510C 1149.56,507.196 1145.22,505.196 1140.5,504C 1137.87,500.801 1138.2,497.801 1141.5,495C 1148.51,491.775 1155.67,488.942 1163,486.5C 1164.61,487.101 1165.94,488.101 1167,489.5C 1172.12,499.4 1176.95,509.4 1181.5,519.5 Z"/></g>
<g><path style="opacity:1" fill="#d7b971" d="M 1735.5,496.5 C 1752.58,497.009 1757.74,505.009 1751,520.5C 1741.2,528.221 1732.86,526.887 1726,516.5C 1725.33,512.833 1725.33,509.167 1726,505.5C 1728.41,501.592 1731.57,498.592 1735.5,496.5 Z"/></g>
<g><path style="opacity:1" fill="#4a3725" d="M 1736.5,499.5 C 1749.42,500.236 1753.59,506.569 1749,518.5C 1744.38,522.641 1739.21,523.474 1733.5,521C 1729,517.155 1727.5,512.322 1729,506.5C 1730.74,503.254 1733.24,500.921 1736.5,499.5 Z"/></g>
<g><path style="opacity:1" fill="#d9bb72" d="M 1733.5,503.5 C 1736.85,503.335 1740.18,503.502 1743.5,504C 1746.1,506.459 1746.1,508.959 1743.5,511.5C 1744.88,513.289 1745.88,515.289 1746.5,517.5C 1745.17,518.833 1743.83,518.833 1742.5,517.5C 1739.12,510.623 1737.45,510.956 1737.5,518.5C 1736.17,518.5 1734.83,518.5 1733.5,518.5C 1733.5,513.5 1733.5,508.5 1733.5,503.5 Z"/></g>
<g><path style="opacity:1" fill="#443122" d="M 1737.5,506.5 C 1738.5,506.5 1739.5,506.5 1740.5,506.5C 1740.5,507.5 1740.5,508.5 1740.5,509.5C 1739.5,509.5 1738.5,509.5 1737.5,509.5C 1737.5,508.5 1737.5,507.5 1737.5,506.5 Z"/></g>
<g><path style="opacity:1" fill="#e7c879" d="M 934.5,521.5 C 934.5,529.167 934.5,536.833 934.5,544.5C 934.5,549.5 934.5,554.5 934.5,559.5C 934.5,574.5 934.5,589.5 934.5,604.5C 934.5,629.167 934.5,653.833 934.5,678.5C 934.5,683.833 934.5,689.167 934.5,694.5C 929.5,694.5 924.5,694.5 919.5,694.5C 906.496,694.667 893.496,694.5 880.5,694C 878.942,691.948 877.608,689.781 876.5,687.5C 872.736,680.962 868.736,674.628 864.5,668.5C 859.5,659.833 854.5,651.167 849.5,642.5C 845.236,636.299 841.236,629.966 837.5,623.5C 835.012,619.194 832.512,614.861 830,610.5C 829.501,616.157 829.334,621.824 829.5,627.5C 829.5,634.833 829.5,642.167 829.5,649.5C 829.5,661.5 829.5,673.5 829.5,685.5C 829.5,688.167 829.5,690.833 829.5,693.5C 821.299,693.517 813.299,694.183 805.5,695.5C 796.812,695.413 788.146,695.747 779.5,696.5C 778.167,696.5 776.833,696.5 775.5,696.5C 775.5,636.833 775.5,577.167 775.5,517.5C 793.503,517.333 811.503,517.5 829.5,518C 837.483,531.484 845.816,544.651 854.5,557.5C 857.668,563.842 861.335,569.842 865.5,575.5C 870.071,583.638 874.904,591.638 880,599.5C 880.5,589.172 880.666,578.839 880.5,568.5C 880.5,560.833 880.5,553.167 880.5,545.5C 880.5,536.167 880.5,526.833 880.5,517.5C 898.492,516.643 916.492,515.977 934.5,515.5C 934.5,517.5 934.5,519.5 934.5,521.5 Z"/></g>
<g><path style="opacity:1" fill="#e7c879" d="M 1017.5,515.5 C 1032.42,515.44 1047.08,517.107 1061.5,520.5C 1061.5,536.833 1061.5,553.167 1061.5,569.5C 1059.71,569.634 1058.04,569.301 1056.5,568.5C 1049.84,567.002 1043.17,565.502 1036.5,564C 1028.5,563.333 1020.5,563.333 1012.5,564C 1002.74,568.005 1002.07,573.005 1010.5,579C 1024.89,584.693 1038.55,591.693 1051.5,600C 1056.71,603.709 1061.04,608.209 1064.5,613.5C 1070.75,622.858 1073.09,633.192 1071.5,644.5C 1070.89,654.653 1067.89,663.986 1062.5,672.5C 1052.57,684.311 1039.9,691.811 1024.5,695C 1018.33,695.645 1012.33,696.478 1006.5,697.5C 987.312,698.41 968.312,697.077 949.5,693.5C 949.5,676.833 949.5,660.167 949.5,643.5C 958.133,644.685 966.8,645.685 975.5,646.5C 984.196,649.117 993.196,649.95 1002.5,649C 1010.3,647.559 1013.8,643.059 1013,635.5C 1012.17,634.667 1011.33,633.833 1010.5,633C 997.101,627.467 984.101,621.134 971.5,614C 966.043,610.375 961.043,606.209 956.5,601.5C 953.287,596.407 950.62,591.073 948.5,585.5C 946.402,573.18 947.402,561.18 951.5,549.5C 952.401,548.71 953.068,547.71 953.5,546.5C 955.833,543.167 958.167,539.833 960.5,536.5C 965.986,531.331 971.986,526.997 978.5,523.5C 986.332,519.458 994.665,517.125 1003.5,516.5C 1008.18,516.331 1012.85,515.998 1017.5,515.5 Z"/></g>
<g><path style="opacity:1" fill="#e6c779" d="M 1527.5,516.5 C 1533.5,516.5 1539.5,516.5 1545.5,516.5C 1550.67,532.497 1556.67,548.163 1563.5,563.5C 1570.04,548.42 1576.04,533.087 1581.5,517.5C 1601.21,517.036 1620.88,518.036 1640.5,520.5C 1626.5,547.833 1612.5,575.167 1598.5,602.5C 1613.64,632.62 1628.64,662.787 1643.5,693C 1624.68,694.704 1605.85,696.204 1587,697.5C 1584.7,697.4 1582.7,696.733 1581,695.5C 1574.94,678.391 1568.61,661.391 1562,644.5C 1554.91,661.691 1548.07,679.025 1541.5,696.5C 1530.84,697.335 1520.17,697.168 1509.5,696C 1501.18,695.191 1492.84,694.525 1484.5,694C 1483.06,693.781 1481.73,693.281 1480.5,692.5C 1496.69,662.778 1512.36,632.778 1527.5,602.5C 1514.03,574.89 1500.03,547.557 1485.5,520.5C 1499.68,519.454 1513.68,518.121 1527.5,516.5 Z"/></g>
<g><path style="opacity:1" fill="#c1a666" d="M 1710.5,516.5 C 1711.5,575.331 1711.83,634.331 1711.5,693.5C 1709.17,693.5 1706.83,693.5 1704.5,693.5C 1706.26,692.539 1708.26,692.205 1710.5,692.5C 1710.5,633.833 1710.5,575.167 1710.5,516.5 Z"/></g>
<g><path style="opacity:1" fill="#b2975d" d="M 1360.5,518.5 C 1398.66,517.501 1437,517.168 1475.5,517.5C 1475.5,534.833 1475.5,552.167 1475.5,569.5C 1464.83,569.5 1454.17,569.5 1443.5,569.5C 1443.83,610.337 1443.5,651.003 1442.5,691.5C 1442.5,650.5 1442.5,609.5 1442.5,568.5C 1453.17,568.5 1463.83,568.5 1474.5,568.5C 1474.5,551.833 1474.5,535.167 1474.5,518.5C 1436.5,518.5 1398.5,518.5 1360.5,518.5 Z"/></g>
<g><path style="opacity:1" fill="#e7c879" d="M 1710.5,516.5 C 1710.5,575.167 1710.5,633.833 1710.5,692.5C 1708.26,692.205 1706.26,692.539 1704.5,693.5C 1688.14,694.54 1671.81,695.873 1655.5,697.5C 1655.5,638.167 1655.5,578.833 1655.5,519.5C 1673.85,518.773 1692.19,517.773 1710.5,516.5 Z"/></g>
<g><path style="opacity:1" fill="#e7c879" d="M 412.5,568.5 C 401.833,568.5 391.167,568.5 380.5,568.5C 380.5,609.5 380.5,650.5 380.5,691.5C 364.176,693.232 347.842,694.899 331.5,696.5C 329.5,696.5 327.5,696.5 325.5,696.5C 325.5,653.833 325.5,611.167 325.5,568.5C 312.5,568.5 299.5,568.5 286.5,568.5C 290.341,551.619 294.341,534.786 298.5,518C 336.499,517.5 374.499,517.333 412.5,517.5C 412.5,534.5 412.5,551.5 412.5,568.5 Z"/></g>
<g><path style="opacity:1" fill="#b2975d" d="M 502.5,518.5 C 476.833,518.5 451.167,518.5 425.5,518.5C 425.5,578.167 425.5,637.833 425.5,697.5C 426.833,697.5 428.167,697.5 429.5,697.5C 428.081,698.451 426.415,698.784 424.5,698.5C 424.5,638.167 424.5,577.833 424.5,517.5C 450.672,517.169 476.672,517.502 502.5,518.5 Z"/></g>
<g><path style="opacity:1" fill="#e7c879" d="M 502.5,518.5 C 549.598,521.414 567.765,545.748 557,591.5C 555.171,595.828 552.838,599.828 550,603.5C 545.014,608.378 539.848,612.878 534.5,617C 545.069,641.541 555.736,666.041 566.5,690.5C 546.846,693.248 527.18,695.915 507.5,698.5C 498.973,673.422 490.14,648.422 481,623.5C 480.5,647.164 480.333,670.831 480.5,694.5C 463.477,695.143 446.477,696.143 429.5,697.5C 428.167,697.5 426.833,697.5 425.5,697.5C 425.5,637.833 425.5,578.167 425.5,518.5C 451.167,518.5 476.833,518.5 502.5,518.5 Z"/></g>
<g><path style="opacity:1" fill="#e6c779" d="M 636.5,517.5 C 659.075,517.173 681.575,517.506 704,518.5C 723.274,576.821 742.44,635.154 761.5,693.5C 741.167,694.833 720.834,696.167 700.5,697.5C 697.831,687.15 695.164,676.817 692.5,666.5C 676.819,666.167 661.152,666.501 645.5,667.5C 642.345,677.12 639.345,686.787 636.5,696.5C 616.807,696.678 597.141,695.678 577.5,693.5C 596.769,634.692 616.436,576.026 636.5,517.5 Z"/></g>
<g><path style="opacity:1" fill="#7d6640" d="M 775.5,517.5 C 775.5,577.167 775.5,636.833 775.5,696.5C 776.833,696.5 778.167,696.5 779.5,696.5C 778.081,697.451 776.415,697.784 774.5,697.5C 774.168,637.331 774.501,577.331 775.5,517.5 Z"/></g>
<g><path style="opacity:1" fill="#e7c879" d="M 1170.5,518.5 C 1174.2,518.552 1177.86,518.886 1181.5,519.5C 1210.67,529.509 1221.17,549.509 1213,579.5C 1208.95,589.55 1202.12,597.05 1192.5,602C 1214.17,612.839 1223,630.339 1219,654.5C 1213.84,676.014 1200.34,688.847 1178.5,693C 1168.87,694.244 1159.21,694.744 1149.5,694.5C 1141.83,694.5 1134.17,694.5 1126.5,694.5C 1111.83,694.5 1097.17,694.5 1082.5,694.5C 1082.5,635.833 1082.5,577.167 1082.5,518.5C 1111.83,518.5 1141.17,518.5 1170.5,518.5 Z"/></g>
<g><path style="opacity:1" fill="#e7c879" d="M 1231.5,517.5 C 1264.17,517.5 1296.83,517.5 1329.5,517.5C 1332.83,533.16 1336.16,548.826 1339.5,564.5C 1322.17,564.5 1304.83,564.5 1287.5,564.5C 1287.5,570.167 1287.5,575.833 1287.5,581.5C 1298.5,581.5 1309.5,581.5 1320.5,581.5C 1320.5,596.5 1320.5,611.5 1320.5,626.5C 1309.5,626.5 1298.5,626.5 1287.5,626.5C 1287.5,632.5 1287.5,638.5 1287.5,644.5C 1305.83,644.5 1324.17,644.5 1342.5,644.5C 1339.17,661.165 1335.83,677.832 1332.5,694.5C 1298.83,694.5 1265.17,694.5 1231.5,694.5C 1231.5,635.5 1231.5,576.5 1231.5,517.5 Z"/></g>
<g><path style="opacity:1" fill="#e7c879" d="M 1360.5,518.5 C 1398.5,518.5 1436.5,518.5 1474.5,518.5C 1474.5,535.167 1474.5,551.833 1474.5,568.5C 1463.83,568.5 1453.17,568.5 1442.5,568.5C 1442.5,609.5 1442.5,650.5 1442.5,691.5C 1424.33,693.685 1405.99,695.685 1387.5,697.5C 1387.5,654.5 1387.5,611.5 1387.5,568.5C 1374.46,569.147 1361.79,568.48 1349.5,566.5C 1352.85,550.418 1356.52,534.418 1360.5,518.5 Z"/></g>
<g><path style="opacity:1" fill="#927a4c" d="M 953.5,546.5 C 953.068,547.71 952.401,548.71 951.5,549.5C 945.88,548.008 940.213,546.341 934.5,544.5C 934.5,536.833 934.5,529.167 934.5,521.5C 937.041,520.351 939.541,520.351 942,521.5C 947.525,529.206 951.358,537.539 953.5,546.5 Z"/></g>
<g><path style="opacity:1" fill="#433121" d="M 934.5,544.5 C 940.213,546.341 945.88,548.008 951.5,549.5C 947.402,561.18 946.402,573.18 948.5,585.5C 944.357,576.546 939.69,567.88 934.5,559.5C 934.5,554.5 934.5,549.5 934.5,544.5 Z"/></g>
<g><path style="opacity:1" fill="#937b4c" d="M 880.5,545.5 C 880.5,553.167 880.5,560.833 880.5,568.5C 875.625,571.104 870.625,573.438 865.5,575.5C 861.335,569.842 857.668,563.842 854.5,557.5C 863.082,553.306 871.749,549.306 880.5,545.5 Z"/></g>
<g><path style="opacity:1" fill="#937b4c" d="M 1140.5,557.5 C 1145.13,566.415 1149.46,575.415 1153.5,584.5C 1153.08,585.222 1152.42,585.722 1151.5,586C 1146.85,586.499 1142.18,586.666 1137.5,586.5C 1137.5,576.833 1137.5,567.167 1137.5,557.5C 1138.5,557.5 1139.5,557.5 1140.5,557.5 Z"/></g>
<g><path style="opacity:1" fill="#433021" d="M 1140.5,557.5 C 1157.54,556.38 1163.71,564.046 1159,580.5C 1157.55,582.464 1155.72,583.797 1153.5,584.5C 1149.46,575.415 1145.13,566.415 1140.5,557.5 Z"/></g>
<g><path style="opacity:1" fill="#937b4c" d="M 934.5,559.5 C 939.69,567.88 944.357,576.546 948.5,585.5C 950.62,591.073 953.287,596.407 956.5,601.5C 962.578,613.325 968.412,625.325 974,637.5C 975.149,640.393 975.649,643.393 975.5,646.5C 966.8,645.685 958.133,644.685 949.5,643.5C 950.398,642.842 951.398,642.176 952.5,641.5C 947.153,630.14 941.819,618.807 936.5,607.5C 936.068,606.29 935.401,605.29 934.5,604.5C 934.5,589.5 934.5,574.5 934.5,559.5 Z"/></g>
<g><path style="opacity:1" fill="#412f20" d="M 1056.5,568.5 C 1055.48,574.155 1057.64,577.488 1063,578.5C 1069.32,577.008 1075.32,574.674 1081,571.5C 1081.83,583.514 1081.67,595.514 1080.5,607.5C 1075.35,610.076 1070.02,612.076 1064.5,613.5C 1061.04,608.209 1056.71,603.709 1051.5,600C 1038.55,591.693 1024.89,584.693 1010.5,579C 1002.07,573.005 1002.74,568.005 1012.5,564C 1020.5,563.333 1028.5,563.333 1036.5,564C 1043.17,565.502 1049.84,567.002 1056.5,568.5 Z"/></g>
<g><path style="opacity:1" fill="#412f20" d="M 480.5,566.5 C 495.397,564.92 503.397,571.42 504.5,586C 504.22,601.441 496.22,608.941 480.5,608.5C 480.5,594.5 480.5,580.5 480.5,566.5 Z"/></g>
<g><path style="opacity:1" fill="#b1975d" d="M 286.5,568.5 C 299.5,568.5 312.5,568.5 325.5,568.5C 325.5,611.167 325.5,653.833 325.5,696.5C 327.5,696.5 329.5,696.5 331.5,696.5C 329.393,697.468 327.059,697.802 324.5,697.5C 324.5,654.833 324.5,612.167 324.5,569.5C 311.656,569.829 298.989,569.495 286.5,568.5 Z"/></g>
<g><path style="opacity:1" fill="#705a39" d="M 412.5,568.5 C 402.347,569.494 392.014,569.828 381.5,569.5C 381.832,610.337 381.499,651.003 380.5,691.5C 380.5,650.5 380.5,609.5 380.5,568.5C 391.167,568.5 401.833,568.5 412.5,568.5 Z"/></g>
<g><path style="opacity:1" fill="#423021" d="M 880.5,568.5 C 880.666,578.839 880.5,589.172 880,599.5C 874.904,591.638 870.071,583.638 865.5,575.5C 870.625,573.438 875.625,571.104 880.5,568.5 Z"/></g>
<g><path style="opacity:1" fill="#745f3c" d="M 1349.5,566.5 C 1361.79,568.48 1374.46,569.147 1387.5,568.5C 1387.5,611.5 1387.5,654.5 1387.5,697.5C 1386.5,655.003 1386.17,612.337 1386.5,569.5C 1373.83,569.5 1361.17,569.5 1348.5,569.5C 1348.26,568.209 1348.6,567.209 1349.5,566.5 Z"/></g>
<g><path style="opacity:1" fill="#433121" d="M 668.5,570.5 C 673.749,586.823 678.082,603.49 681.5,620.5C 672.827,620.666 664.16,620.5 655.5,620C 659.908,603.536 664.241,587.036 668.5,570.5 Z"/></g>
<g><path style="opacity:1" fill="#5a462e" d="M 934.5,604.5 C 935.401,605.29 936.068,606.29 936.5,607.5C 935.502,630.994 935.169,654.661 935.5,678.5C 935.167,678.5 934.833,678.5 934.5,678.5C 934.5,653.833 934.5,629.167 934.5,604.5 Z"/></g>
<g><path style="opacity:1" fill="#423021" d="M 956.5,601.5 C 961.043,606.209 966.043,610.375 971.5,614C 984.101,621.134 997.101,627.467 1010.5,633C 1011.33,633.833 1012.17,634.667 1013,635.5C 1013.8,643.059 1010.3,647.559 1002.5,649C 993.196,649.95 984.196,649.117 975.5,646.5C 975.649,643.393 975.149,640.393 974,637.5C 968.412,625.325 962.578,613.325 956.5,601.5 Z"/></g>
<g><path style="opacity:1" fill="#453222" d="M 837.5,623.5 C 834.872,624.814 832.205,626.147 829.5,627.5C 829.334,621.824 829.501,616.157 830,610.5C 832.512,614.861 835.012,619.194 837.5,623.5 Z"/></g>
<g><path style="opacity:1" fill="#90774a" d="M 1137.5,620.5 C 1137.5,631.167 1137.5,641.833 1137.5,652.5C 1142.17,652.5 1146.83,652.5 1151.5,652.5C 1146.69,653.487 1141.69,653.821 1136.5,653.5C 1136.17,642.321 1136.51,631.321 1137.5,620.5 Z"/></g>
<g><path style="opacity:1" fill="#412e20" d="M 1137.5,620.5 C 1141.5,620.5 1145.5,620.5 1149.5,620.5C 1152.44,628.383 1155.94,636.05 1160,643.5C 1160.49,644.793 1160.66,646.127 1160.5,647.5C 1158.22,650.442 1155.22,652.109 1151.5,652.5C 1146.83,652.5 1142.17,652.5 1137.5,652.5C 1137.5,641.833 1137.5,631.167 1137.5,620.5 Z"/></g>
<g><path style="opacity:1" fill="#937b4d" d="M 1149.5,620.5 C 1156.52,621.017 1161.02,624.683 1163,631.5C 1163.94,637.222 1163.11,642.556 1160.5,647.5C 1160.66,646.127 1160.49,644.793 1160,643.5C 1155.94,636.05 1152.44,628.383 1149.5,620.5 Z"/></g>
<g><path style="opacity:1" fill="#937b4c" d="M 837.5,623.5 C 841.236,629.966 845.236,636.299 849.5,642.5C 844.299,644.098 839.299,646.265 834.5,649C 832.866,649.494 831.199,649.66 829.5,649.5C 829.5,642.167 829.5,634.833 829.5,627.5C 832.205,626.147 834.872,624.814 837.5,623.5 Z"/></g>
<g><path style="opacity:1" fill="#423021" d="M 1062.5,672.5 C 1067.89,663.986 1070.89,654.653 1071.5,644.5C 1072.17,640.979 1072.83,637.313 1073.5,633.5C 1075.98,631.924 1078.65,630.924 1081.5,630.5C 1081.67,642.171 1081.5,653.838 1081,665.5C 1075.24,668.295 1069.41,670.962 1063.5,673.5C 1062.89,673.376 1062.56,673.043 1062.5,672.5 Z"/></g>
<g><path style="opacity:1" fill="#412e20" d="M 849.5,642.5 C 854.5,651.167 859.5,659.833 864.5,668.5C 863.878,670.335 862.544,671.502 860.5,672C 850.145,676.512 839.812,681.012 829.5,685.5C 829.5,673.5 829.5,661.5 829.5,649.5C 831.199,649.66 832.866,649.494 834.5,649C 839.299,646.265 844.299,644.098 849.5,642.5 Z"/></g>
<g><path style="opacity:1" fill="#937b4c" d="M 1158.5,517.5 C 1162.7,517.183 1166.7,517.517 1170.5,518.5C 1141.17,518.5 1111.83,518.5 1082.5,518.5C 1082.5,577.167 1082.5,635.833 1082.5,694.5C 1081.69,692.369 1081.19,690.036 1081,687.5C 1060.45,697.189 1039.95,707.022 1019.5,717C 1016.26,718.368 1012.93,718.701 1009.5,718C 1008.3,717.097 1007.47,715.931 1007,714.5C 1006.33,710.167 1006.33,705.833 1007,701.5C 1011.44,698.7 1011.27,697.367 1006.5,697.5C 1012.33,696.478 1018.33,695.645 1024.5,695C 1039.9,691.811 1052.57,684.311 1062.5,672.5C 1062.56,673.043 1062.89,673.376 1063.5,673.5C 1069.41,670.962 1075.24,668.295 1081,665.5C 1081.5,653.838 1081.67,642.171 1081.5,630.5C 1078.65,630.924 1075.98,631.924 1073.5,633.5C 1072.83,637.313 1072.17,640.979 1071.5,644.5C 1073.09,633.192 1070.75,622.858 1064.5,613.5C 1070.02,612.076 1075.35,610.076 1080.5,607.5C 1081.67,595.514 1081.83,583.514 1081,571.5C 1075.32,574.674 1069.32,577.008 1063,578.5C 1057.64,577.488 1055.48,574.155 1056.5,568.5C 1058.04,569.301 1059.71,569.634 1061.5,569.5C 1061.5,553.167 1061.5,536.833 1061.5,520.5C 1062.33,532.326 1062.83,544.326 1063,556.5C 1069.01,553.411 1075.18,550.744 1081.5,548.5C 1081.5,538.167 1081.5,527.833 1081.5,517.5C 1107.17,517.5 1132.83,517.5 1158.5,517.5 Z"/></g>
<g><path style="opacity:1" fill="#937b4c" d="M 864.5,668.5 C 868.736,674.628 872.736,680.962 876.5,687.5C 855.079,697.042 833.746,706.875 812.5,717C 803.689,720.769 799.689,717.936 800.5,708.5C 800.667,706.167 800.833,703.833 801,701.5C 802.833,699.667 804.667,697.833 806.5,696C 806.272,695.601 805.938,695.435 805.5,695.5C 813.299,694.183 821.299,693.517 829.5,693.5C 829.5,690.833 829.5,688.167 829.5,685.5C 839.812,681.012 850.145,676.512 860.5,672C 862.544,671.502 863.878,670.335 864.5,668.5 Z"/></g>
<g><path style="opacity:1" fill="#937b4c" d="M 934.5,678.5 C 934.833,678.5 935.167,678.5 935.5,678.5C 940.05,688.6 944.883,698.6 950,708.5C 950.701,711.928 950.368,715.262 949,718.5C 946.5,721 944,723.5 941.5,726C 939.421,726.808 937.421,726.641 935.5,725.5C 929.791,715.385 924.458,705.051 919.5,694.5C 924.5,694.5 929.5,694.5 934.5,694.5C 934.5,689.167 934.5,683.833 934.5,678.5 Z"/></g>
<g><path style="opacity:1" fill="#927a4c" d="M 1126.5,694.5 C 1134.17,694.5 1141.83,694.5 1149.5,694.5C 1151.65,698.807 1153.82,703.14 1156,707.5C 1158.21,717.277 1154.55,723.611 1145,726.5C 1142.85,726.357 1141.18,725.357 1140,723.5C 1135.49,713.812 1130.99,704.145 1126.5,694.5 Z"/></g>
<g><path style="opacity:1" fill="#927a4c" d="M 877.5,697.5 C 880.365,697.055 882.865,697.722 885,699.5C 898,725.5 911,751.5 924,777.5C 925.368,780.738 925.701,784.072 925,787.5C 921.833,790.667 918.667,793.833 915.5,797C 912.211,797.746 909.711,796.58 908,793.5C 896.939,769.712 885.606,746.045 874,722.5C 872.442,720.641 870.609,719.141 868.5,718C 864.356,716.734 860.523,714.901 857,712.5C 856.613,708.835 858.113,706.002 861.5,704C 867.054,702.1 872.387,699.934 877.5,697.5 Z"/></g>
<g><path style="opacity:1" fill="#927a4c" d="M 1084.5,697.5 C 1086.79,697.244 1088.96,697.577 1091,698.5C 1104.33,725.167 1117.67,751.833 1131,778.5C 1131.87,781.485 1132.2,784.485 1132,787.5C 1128.8,791.036 1125.3,794.203 1121.5,797C 1117.91,797.45 1115.41,795.95 1114,792.5C 1103.27,769.378 1092.27,746.378 1081,723.5C 1079.5,722 1078,720.5 1076.5,719C 1071.64,717.055 1067.14,714.555 1063,711.5C 1062.73,708.72 1063.9,706.554 1066.5,705C 1072.48,702.182 1078.48,699.682 1084.5,697.5 Z"/></g>
<g><path style="opacity:1" fill="#927a4c" d="M 860.5,730.5 C 862.199,730.34 863.866,730.506 865.5,731C 870.596,737.926 874.596,745.426 877.5,753.5C 877.61,755.374 876.944,756.874 875.5,758C 868.871,756.792 862.205,755.792 855.5,755C 830.834,766.917 806.001,778.417 781,789.5C 779.289,789.561 777.956,788.894 777,787.5C 775.437,782.282 775.104,776.949 776,771.5C 777.5,770 779,768.5 780.5,767C 807.376,755.058 834.043,742.891 860.5,730.5 Z"/></g>
<g><path style="opacity:1" fill="#927a4c" d="M 1067.5,730.5 C 1070.32,730.081 1072.49,731.081 1074,733.5C 1078.14,739.815 1081.64,746.482 1084.5,753.5C 1084.24,755.187 1083.57,756.687 1082.5,758C 1075.8,757.208 1069.13,756.208 1062.5,755C 1038.5,766.333 1014.5,777.667 990.5,789C 986.199,790.266 983.366,788.766 982,784.5C 981.333,780.167 981.333,775.833 982,771.5C 983.167,770.333 984.333,769.167 985.5,768C 1012.77,755.194 1040.11,742.694 1067.5,730.5 Z"/></g>
<g><path style="opacity:1" fill="#e5c678" d="M 391.5,751.5 C 398.522,752.375 405.522,752.708 412.5,752.5C 416.737,768.579 419.903,784.913 422,801.5C 422.333,797.833 422.667,794.167 423,790.5C 425.629,782.334 428.129,774.168 430.5,766C 427.594,757.674 430.428,752.84 439,751.5C 444.019,751.535 449.019,751.869 454,752.5C 454.449,757.483 453.449,762.15 451,766.5C 450.667,769.5 450.333,772.5 450,775.5C 447.492,779.391 446.659,783.557 447.5,788C 442.974,803.978 439.141,820.145 436,836.5C 434.741,840.223 432.408,841.223 429,839.5C 428.934,842.276 427.768,844.442 425.5,846C 421.301,845.737 417.134,845.904 413,846.5C 410.849,846.357 409.182,845.357 408,843.5C 403.832,827.064 400.499,810.398 398,793.5C 394.757,782.978 392.09,772.311 390,761.5C 389.153,757.928 389.653,754.594 391.5,751.5 Z"/></g>
<g><path style="opacity:1" fill="#e5c778" d="M 356.5,751.5 C 360.863,752.348 365.197,752.348 369.5,751.5C 371.593,751.486 373.426,752.152 375,753.5C 374.412,766.939 374.912,780.272 376.5,793.5C 375.89,804.391 375.224,815.224 374.5,826C 377.264,832.473 376.93,838.806 373.5,845C 369.047,845.928 364.547,846.428 360,846.5C 357.739,846.561 355.739,845.894 354,844.5C 353.558,814.338 353.392,784.005 353.5,753.5C 355.179,753.715 356.179,753.048 356.5,751.5 Z"/></g>
<g><path style="opacity:1" fill="#e4c678" d="M 1696.5,754.5 C 1699.52,754.335 1702.52,754.502 1705.5,755C 1706.94,756.126 1707.61,757.626 1707.5,759.5C 1707.29,763.359 1707.13,767.359 1707,771.5C 1702.37,776.487 1699.71,782.487 1699,789.5C 1698,790.167 1697,790.833 1696,791.5C 1695.33,798.5 1695.33,805.5 1696,812.5C 1699.11,817.947 1701.77,823.613 1704,829.5C 1705,830.5 1706,831.5 1707,832.5C 1707.7,838.537 1707.53,844.537 1706.5,850.5C 1696.4,851.198 1687.9,847.864 1681,840.5C 1678.55,836.724 1677.72,832.724 1678.5,828.5C 1677.52,827.019 1676.35,825.685 1675,824.5C 1674.83,809.831 1675.16,795.165 1676,780.5C 1677.94,775.973 1679.61,771.307 1681,766.5C 1685.78,761.871 1690.95,757.871 1696.5,754.5 Z"/></g>
<g><path style="opacity:1" fill="#e4c578" d="M 1710.5,754.5 C 1714.18,754.335 1717.85,754.501 1721.5,755C 1727.55,758.051 1732.72,762.218 1737,767.5C 1740.53,777.455 1742.36,787.788 1742.5,798.5C 1741.66,809.491 1740.83,820.491 1740,831.5C 1736.88,836.286 1733.38,840.786 1729.5,845C 1726.22,845.759 1723.22,847.092 1720.5,849C 1717.81,849.392 1715.15,849.892 1712.5,850.5C 1710.97,850.471 1709.8,849.804 1709,848.5C 1709.46,843.146 1709.46,837.812 1709,832.5C 1710.2,829.793 1712.03,829.126 1714.5,830.5C 1716.13,830.032 1717.3,829.032 1718,827.5C 1719.49,824.173 1719.32,821.173 1717.5,818.5C 1719.36,813.648 1720.7,808.648 1721.5,803.5C 1720.94,796.753 1719.94,790.086 1718.5,783.5C 1720.43,776.075 1717.43,772.408 1709.5,772.5C 1708.87,766.465 1709.2,760.465 1710.5,754.5 Z"/></g>
<g><path style="opacity:1" fill="#e4c578" d="M 171.5,755.5 C 175.529,755.149 179.362,755.815 183,757.5C 185.787,756.483 188.62,756.316 191.5,757C 192.059,757.725 192.392,758.558 192.5,759.5C 187.812,771.403 182.646,783.07 177,794.5C 175.507,796.56 173.674,796.893 171.5,795.5C 164.424,783.349 163.591,770.682 169,757.5C 169.995,756.934 170.828,756.267 171.5,755.5 Z"/></g>
<g><path style="opacity:1" fill="#e4c578" d="M 247.5,755.5 C 251.529,755.149 255.362,755.815 259,757.5C 261.787,756.483 264.62,756.316 267.5,757C 268.059,757.725 268.392,758.558 268.5,759.5C 263.812,771.403 258.646,783.07 253,794.5C 251.507,796.56 249.674,796.893 247.5,795.5C 240.424,783.349 239.591,770.682 245,757.5C 245.995,756.934 246.828,756.267 247.5,755.5 Z"/></g>
<g><path style="opacity:1" fill="#e4c578" d="M 323.5,755.5 C 327.529,755.149 331.362,755.815 335,757.5C 337.787,756.483 340.62,756.316 343.5,757C 344.059,757.725 344.392,758.558 344.5,759.5C 339.134,771.851 333.801,784.184 328.5,796.5C 326.712,796.785 325.045,796.452 323.5,795.5C 316.424,783.349 315.591,770.682 321,757.5C 321.995,756.934 322.828,756.267 323.5,755.5 Z"/></g>
<g><path style="opacity:1" fill="#e4c678" d="M 1863.5,755.5 C 1869.88,755.295 1876.21,755.628 1882.5,756.5C 1882.66,781.09 1882.33,805.59 1881.5,830C 1883.88,836.262 1883.55,842.428 1880.5,848.5C 1879.31,849.84 1877.81,850.507 1876,850.5C 1873.02,849.375 1870.02,849.375 1867,850.5C 1861.54,850.541 1859.04,847.874 1859.5,842.5C 1860.13,814.171 1860.79,785.838 1861.5,757.5C 1862.52,757.145 1863.19,756.478 1863.5,755.5 Z"/></g>
<g><path style="opacity:1" fill="#e4c678" d="M 1633.5,830.5 C 1633.5,835.167 1633.5,839.833 1633.5,844.5C 1629.47,846.795 1625.14,847.128 1620.5,845.5C 1615.58,847.952 1610.75,847.952 1606,845.5C 1605.18,836.062 1606.01,826.729 1608.5,817.5C 1606.69,804.14 1612.52,796.806 1626,795.5C 1630.59,794.62 1633.59,796.287 1635,800.5C 1635.49,798.866 1635.66,797.199 1635.5,795.5C 1638.56,795.556 1640.73,794.222 1642,791.5C 1644.06,786.844 1643.89,782.344 1641.5,778C 1638.83,776.999 1636.49,775.499 1634.5,773.5C 1632.34,775.412 1630.01,777.079 1627.5,778.5C 1626.94,780.854 1626.27,783.187 1625.5,785.5C 1623.98,786.937 1622.15,787.604 1620,787.5C 1606.66,788.125 1601.99,782.125 1606,769.5C 1608.83,764 1613,759.833 1618.5,757C 1623.55,756.219 1628.55,756.386 1633.5,757.5C 1634.33,761.122 1634.83,764.789 1635,768.5C 1635.17,764.789 1635.67,761.122 1636.5,757.5C 1652.69,754.94 1662.36,761.774 1665.5,778C 1665.6,780.145 1664.94,781.979 1663.5,783.5C 1664.86,788.205 1664.7,792.872 1663,797.5C 1661.13,799.405 1659.63,801.572 1658.5,804C 1651.12,807.853 1643.62,808.353 1636,805.5C 1633.42,806.457 1631.42,808.124 1630,810.5C 1629.5,816.157 1629.33,821.824 1629.5,827.5C 1630.83,827.5 1632.17,827.5 1633.5,827.5C 1633.5,828.5 1633.5,829.5 1633.5,830.5 Z"/></g>
<g><path style="opacity:1" fill="#e4c578" d="M 1779.5,830.5 C 1779.5,835.167 1779.5,839.833 1779.5,844.5C 1775.47,846.795 1771.14,847.128 1766.5,845.5C 1761.58,847.952 1756.75,847.952 1752,845.5C 1751.95,841.585 1751.79,837.751 1751.5,834C 1751.89,828.961 1752.89,824.128 1754.5,819.5C 1752.93,800.957 1761.26,793.457 1779.5,797C 1780.19,798.067 1780.69,799.234 1781,800.5C 1781.49,798.866 1781.66,797.199 1781.5,795.5C 1784.56,795.556 1786.73,794.222 1788,791.5C 1790.06,786.844 1789.89,782.344 1787.5,778C 1784.83,776.999 1782.49,775.499 1780.5,773.5C 1778.34,775.412 1776.01,777.079 1773.5,778.5C 1772.94,780.854 1772.27,783.187 1771.5,785.5C 1769.98,786.937 1768.15,787.604 1766,787.5C 1752.66,788.125 1747.99,782.125 1752,769.5C 1754.83,764 1759,759.833 1764.5,757C 1769.55,756.219 1774.55,756.386 1779.5,757.5C 1780.33,762.132 1780.83,766.798 1781,771.5C 1781.17,766.798 1781.67,762.132 1782.5,757.5C 1798.69,754.94 1808.36,761.774 1811.5,778C 1811.65,780.034 1810.98,781.701 1809.5,783C 1810.91,787.868 1810.75,792.701 1809,797.5C 1807.13,799.405 1805.63,801.572 1804.5,804C 1797.15,807.925 1789.65,808.425 1782,805.5C 1779.42,806.457 1777.42,808.124 1776,810.5C 1775.5,816.157 1775.33,821.824 1775.5,827.5C 1776.83,827.5 1778.17,827.5 1779.5,827.5C 1779.5,828.5 1779.5,829.5 1779.5,830.5 Z"/></g>
<g><path style="opacity:1" fill="#e5c678" d="M 133.5,759.5 C 138.856,760.119 144.023,761.452 149,763.5C 150.026,768.538 152.693,772.538 157,775.5C 164.469,786.99 171.135,798.99 177,811.5C 181.911,817.655 186.577,823.989 191,830.5C 192.303,832.94 193.47,835.44 194.5,838C 194.097,839.473 193.43,840.806 192.5,842C 186.612,843.576 180.612,843.909 174.5,843C 163.64,827.458 153.14,811.624 143,795.5C 138.41,792.247 135.41,787.914 134,782.5C 130.667,777.833 127.333,773.167 124,768.5C 123.313,766.432 123.48,764.432 124.5,762.5C 127.576,761.366 130.576,760.366 133.5,759.5 Z"/></g>
<g><path style="opacity:1" fill="#e5c678" d="M 209.5,759.5 C 214.856,760.119 220.023,761.452 225,763.5C 226.026,768.538 228.693,772.538 233,775.5C 240.469,786.99 247.135,798.99 253,811.5C 257.911,817.655 262.577,823.989 267,830.5C 268.303,832.94 269.47,835.44 270.5,838C 270.097,839.473 269.43,840.806 268.5,842C 262.612,843.576 256.612,843.909 250.5,843C 239.64,827.458 229.14,811.624 219,795.5C 214.41,792.247 211.41,787.914 210,782.5C 206.667,777.833 203.333,773.167 200,768.5C 199.313,766.432 199.48,764.432 200.5,762.5C 203.576,761.366 206.576,760.366 209.5,759.5 Z"/></g>
<g><path style="opacity:1" fill="#e5c678" d="M 285.5,759.5 C 290.856,760.119 296.023,761.452 301,763.5C 302.026,768.538 304.693,772.538 309,775.5C 316.469,786.99 323.135,798.99 329,811.5C 333.911,817.655 338.577,823.989 343,830.5C 344.303,832.94 345.47,835.44 346.5,838C 346.097,839.473 345.43,840.806 344.5,842C 338.612,843.576 332.612,843.909 326.5,843C 315.64,827.458 305.14,811.624 295,795.5C 290.41,792.247 287.41,787.914 286,782.5C 282.667,777.833 279.333,773.167 276,768.5C 275.313,766.432 275.48,764.432 276.5,762.5C 279.576,761.366 282.576,760.366 285.5,759.5 Z"/></g>
<g><path style="opacity:1" fill="#e4c578" d="M 1853.5,758.5 C 1855.12,759.038 1856.78,759.371 1858.5,759.5C 1858.67,764.844 1858.5,770.177 1858,775.5C 1857.5,776 1857,776.5 1856.5,777C 1858.14,786.95 1856.14,796.116 1850.5,804.5C 1852.33,806.156 1853.66,808.156 1854.5,810.5C 1853.81,814.442 1853.81,818.442 1854.5,822.5C 1849.5,823.084 1844.5,823.251 1839.5,823C 1838.95,822.075 1838.29,821.242 1837.5,820.5C 1833.66,823.914 1829.33,824.414 1824.5,822C 1823.23,820.204 1823.23,818.371 1824.5,816.5C 1823.69,815.186 1822.69,814.019 1821.5,813C 1832.05,794.724 1842.72,776.557 1853.5,758.5 Z"/></g>
<g><path style="opacity:1" fill="#927a4c" d="M 853.5,767.5 C 856.923,767.128 859.423,768.461 861,771.5C 873.938,797.043 886.605,822.71 899,848.5C 900.124,851.442 900.458,854.442 900,857.5C 897.5,861.333 894.333,864.5 890.5,867C 887.503,867.755 885.003,866.922 883,864.5C 872,841.167 861,817.833 850,794.5C 848.167,792.667 846.333,790.833 844.5,789C 840.15,787.551 835.984,785.718 832,783.5C 830.824,779.74 831.99,776.907 835.5,775C 841.479,772.182 847.479,769.682 853.5,767.5 Z"/></g>
<g><path style="opacity:1" fill="#927a4c" d="M 1059.5,767.5 C 1063.68,766.846 1066.52,768.512 1068,772.5C 1080.59,797.346 1092.92,822.346 1105,847.5C 1106.4,851.072 1106.74,854.739 1106,858.5C 1103.13,861.704 1099.96,864.537 1096.5,867C 1093.21,867.746 1090.71,866.58 1089,863.5C 1077.92,839.681 1066.59,816.014 1055,792.5C 1049.43,788.979 1043.76,785.645 1038,782.5C 1037.76,780.023 1038.59,777.856 1040.5,776C 1046.81,772.852 1053.14,770.019 1059.5,767.5 Z"/></g>
<g><path style="opacity:1" fill="#e4c678" d="M 142.5,804.5 C 144.144,804.286 145.644,804.62 147,805.5C 151.73,812.196 153.897,819.696 153.5,828C 152.727,832.927 151.56,837.76 150,842.5C 145.225,845.905 140.225,846.239 135,843.5C 131.148,845.431 127.981,844.765 125.5,841.5C 131.233,829.13 136.9,816.797 142.5,804.5 Z"/></g>
<g><path style="opacity:1" fill="#e4c678" d="M 218.5,804.5 C 220.144,804.286 221.644,804.62 223,805.5C 227.73,812.196 229.897,819.696 229.5,828C 228.727,832.927 227.56,837.76 226,842.5C 221.225,845.905 216.225,846.239 211,843.5C 207.148,845.431 203.981,844.765 201.5,841.5C 207.233,829.13 212.9,816.797 218.5,804.5 Z"/></g>
<g><path style="opacity:1" fill="#e5c678" d="M 294.5,804.5 C 296.144,804.286 297.644,804.62 299,805.5C 303.73,812.196 305.897,819.696 305.5,828C 304.727,832.927 303.56,837.76 302,842.5C 297.225,845.905 292.225,846.239 287,843.5C 283.148,845.431 279.981,844.765 277.5,841.5C 283.233,829.13 288.9,816.797 294.5,804.5 Z"/></g>
<g><path style="opacity:1" fill="#503d29" d="M 422.5,806.5 C 425.252,810.701 426.086,815.368 425,820.5C 423.026,816.049 422.193,811.382 422.5,806.5 Z"/></g>
<g><path style="opacity:1" fill="#483624" d="M 425.5,822.5 C 427.385,824.795 427.885,827.462 427,830.5C 425.921,827.937 425.421,825.271 425.5,822.5 Z"/></g>
<g><path style="opacity:1" fill="#e2c477" d="M 1635.5,844.5 C 1635.11,839.741 1635.11,835.075 1635.5,830.5C 1635.57,828.589 1636.57,827.422 1638.5,827C 1646.17,826.333 1653.83,826.333 1661.5,827C 1662.94,832.39 1663.44,837.89 1663,843.5C 1658.65,846.912 1654.15,847.246 1649.5,844.5C 1644.7,847.122 1640.03,847.122 1635.5,844.5 Z"/></g>
<g><path style="opacity:1" fill="#e4c577" d="M 1781.5,844.5 C 1781.11,839.741 1781.11,835.075 1781.5,830.5C 1781.57,828.589 1782.57,827.422 1784.5,827C 1792.49,826.5 1800.49,826.334 1808.5,826.5C 1808.83,832.537 1808.5,838.537 1807.5,844.5C 1803.43,847.089 1799.43,847.089 1795.5,844.5C 1790.7,847.122 1786.03,847.122 1781.5,844.5 Z"/></g>
<g><path style="opacity:1" fill="#957d4e" d="M 1633.5,830.5 C 1634.17,830.5 1634.83,830.5 1635.5,830.5C 1635.11,835.075 1635.11,839.741 1635.5,844.5C 1634.83,844.5 1634.17,844.5 1633.5,844.5C 1633.5,839.833 1633.5,835.167 1633.5,830.5 Z"/></g>
<g><path style="opacity:1" fill="#9c8451" d="M 1779.5,830.5 C 1780.17,830.5 1780.83,830.5 1781.5,830.5C 1781.11,835.075 1781.11,839.741 1781.5,844.5C 1780.83,844.5 1780.17,844.5 1779.5,844.5C 1779.5,839.833 1779.5,835.167 1779.5,830.5 Z"/></g>
</svg>
